<?xml version="1.0" encoding="iso-8859-1"?>
<!-- Uploaded to: SVG Repo, www.svgrepo.com, Generator: SVG Repo Mixer Tools -->
<svg version="1.1" id="Layer_1" xmlns="http://www.w3.org/2000/svg" xmlns:xlink="http://www.w3.org/1999/xlink" 
	 viewBox="0 0 512 512" xml:space="preserve">
<path style="fill:#3E3B43;" d="M121.562,108.315V35.746c0-15.543,12.599-28.142,28.142-28.142h212.592
	c15.543,0,28.142,12.599,28.142,28.142v440.508c0,15.543-12.599,28.142-28.142,28.142H149.704
	c-15.543,0-28.142-12.599-28.142-28.142V213.757V108.315z"/>
<rect x="121.563" y="77.226" style="fill:#C6C3CB;" width="268.878" height="344.716"/>
<circle style="fill:#FF5023;" cx="252.21" cy="242.142" r="84.668"/>
<g>
	<path style="fill:#C6C3CB;" d="M284.754,48.674h-65.091c-4.199,0-7.604-3.404-7.604-7.604s3.405-7.604,7.604-7.604h65.091
		c4.199,0,7.604,3.404,7.604,7.604S288.954,48.674,284.754,48.674z"/>
	<circle style="fill:#C6C3CB;" cx="255.252" cy="463.277" r="18.758"/>
</g>
<polygon style="fill:#FFFFFF;" points="230.646,193.123 292.871,239.243 230.646,285.362 "/>
<path style="opacity:0.18;fill:#2F2D30;enable-background:new    ;" d="M362.296,7.604h-19.47v421.038
	c0,15.543-12.599,28.142-28.142,28.142H121.562v19.47c0,15.543,12.599,28.142,28.142,28.142h212.592
	c15.543,0,28.142-12.599,28.142-28.142V35.746C390.438,20.203,377.839,7.604,362.296,7.604z"/>
<polygon style="opacity:0.33;fill:#FFFFFF;enable-background:new    ;" points="239.346,421.572 129.321,421.572 248.391,77.223 
	358.417,77.223 "/>
<path d="M362.296,0H149.704c-19.711,0-35.746,16.035-35.746,35.747v72.568c0,4.2,3.405,7.604,7.604,7.604
	c4.199,0,7.604-3.404,7.604-7.604V84.827h253.669v329.508H129.166V213.757c0-4.2-3.405-7.604-7.604-7.604
	c-4.199,0-7.604,3.404-7.604,7.604v262.497c0,19.71,16.035,35.746,35.746,35.746h212.592c19.711,0,35.746-16.035,35.746-35.746
	V35.747C398.042,16.035,382.007,0,362.296,0z M129.166,69.619V35.747c0-11.325,9.213-20.539,20.538-20.539h212.592
	c11.325,0,20.538,9.214,20.538,20.539v33.872H129.166z M362.296,496.792H149.704c-11.325,0-20.538-9.213-20.538-20.538v-46.711
	h253.669v46.711C382.834,487.579,373.621,496.792,362.296,496.792z"/>
<path d="M284.754,33.466h-65.091c-4.199,0-7.604,3.404-7.604,7.604s3.405,7.604,7.604,7.604h65.091c4.199,0,7.604-3.404,7.604-7.604
	S288.954,33.466,284.754,33.466z"/>
<path d="M255.25,436.911c-14.536,0-26.362,11.826-26.362,26.362c0,14.537,11.826,26.363,26.362,26.363
	c14.536,0,26.362-11.826,26.362-26.363C281.612,448.737,269.786,436.911,255.25,436.911z M255.25,474.427
	c-6.15,0-11.154-5.004-11.154-11.155c0-6.15,5.003-11.154,11.154-11.154c6.15,0,11.154,5.003,11.154,11.154
	C266.403,469.423,261.4,474.427,255.25,474.427z"/>
<path d="M300.475,239.243c0-2.409-1.141-4.674-3.076-6.109l-62.225-46.12c-2.307-1.71-5.381-1.974-7.948-0.682
	c-2.565,1.291-4.184,3.919-4.184,6.791v92.24c0,2.872,1.619,5.5,4.184,6.791c1.081,0.544,2.253,0.813,3.419,0.813
	c1.602,0,3.194-0.506,4.529-1.495l62.225-46.119C299.334,243.918,300.475,241.652,300.475,239.243z M238.25,270.26v-62.037
	l41.85,31.019L238.25,270.26z"/>
<path d="M344.48,242.144c0-50.88-41.393-92.273-92.272-92.273s-92.272,41.393-92.272,92.273c0,50.879,41.393,92.272,92.272,92.272
	S344.48,293.023,344.48,242.144z M175.144,242.144c0-42.493,34.571-77.065,77.064-77.065s77.064,34.572,77.064,77.065
	s-34.571,77.064-77.064,77.064S175.144,284.638,175.144,242.144z"/>
</svg>