<?xml version="1.0" encoding="iso-8859-1"?>
<!-- Uploaded to: SVG Repo, www.svgrepo.com, Generator: SVG Repo Mixer Tools -->
<svg height="800px" width="800px" version="1.1" id="Layer_1" xmlns="http://www.w3.org/2000/svg" xmlns:xlink="http://www.w3.org/1999/xlink" 
	 viewBox="0 0 512 512" xml:space="preserve">
<polygon style="fill:#6E5B3F;" points="256.004,361.308 165.743,361.308 179.319,411.539 203.108,499.545 308.9,499.545 
	332.689,411.539 346.265,361.308 "/>
<polygon style="fill:#A3875E;" points="332.689,411.539 308.9,499.545 203.108,499.545 179.319,411.539 "/>
<g>
	<path style="fill:#F0C419;" d="M134.868,112.795c28.995,10.587,43.904,42.671,33.317,71.653
		c-19.056,52.174,4.895,66.771,4.895,66.771c-6.227,17.038-25.072,25.794-42.098,19.579c-6.676-2.441-12.069-6.813-15.793-12.256
		c-8.42,11.459-23.689,16.515-37.713,11.396c-14.037-5.131-22.444-18.832-21.497-33.018c-6.364,1.756-13.302,1.619-19.978-0.81
		c-17.026-6.227-25.794-25.072-19.567-42.11c0,0,27.725,4.272,46.768-47.889C73.789,117.117,105.873,102.209,134.868,112.795z"/>
	<path style="fill:#F0C419;" d="M495.574,131.727c6.215,17.038-2.553,35.883-19.579,42.11c-6.663,2.429-13.613,2.566-19.978,0.81
		c0.959,14.186-7.46,27.887-21.485,33.018c-14.037,5.119-29.294,0.062-37.713-11.396c-3.736,5.443-9.129,9.814-15.793,12.256
		c-17.038,6.215-35.883-2.541-42.11-19.579c0,0,23.951-14.597,4.895-66.771c-10.587-28.983,4.334-61.066,33.317-71.653
		c28.995-10.587,61.079,4.322,71.666,33.317C467.85,135.999,495.574,131.727,495.574,131.727z"/>
</g>
<path d="M369.818,222.966c-18.498,0.001-35.896-11.405-42.601-29.746c-2.148-5.877-0.527-11.909,4.963-14.783
	c1.671-1.491,13.801-14.016-0.07-51.991c-6.261-17.142-5.471-35.698,2.226-52.25c7.696-16.55,21.375-29.113,38.518-35.376
	c17.152-6.261,35.708-5.473,52.258,2.219c16.553,7.695,29.117,21.376,35.378,38.522l0,0c13.872,37.97,31.223,39.726,33.46,39.79
	c6.046-1.343,11.177,2.226,13.322,8.106c8.554,23.449-3.558,49.502-27.001,58.076c-4.301,1.567-8.743,2.467-13.211,2.699
	c-3.709,14.067-14.108,25.954-28.251,31.127c-14.149,5.163-29.768,2.776-41.677-5.59c-3.563,2.704-7.535,4.876-11.823,6.448
	C380.201,222.082,374.966,222.966,369.818,222.966z M354.296,190.954c5.377,6.247,14.275,8.857,22.462,5.87
	c3.991-1.462,7.383-4.094,9.792-7.604c2.283-3.325,6.036-5.339,10.069-5.404c0.067-0.001,0.133-0.001,0.199-0.001
	c3.961,0,7.688,1.883,10.037,5.08c5.326,7.248,14.951,10.154,23.41,7.069c8.446-3.09,13.931-11.513,13.324-20.477
	c-0.271-4.028,1.425-7.938,4.552-10.49c3.126-2.551,7.295-3.433,11.187-2.356c4.098,1.13,8.385,0.958,12.4-0.506
	c8.175-2.99,13.291-10.717,13.377-18.961c-13.01-3.185-33.343-14.91-48.012-55.062c0-0.001-0.001-0.001-0.001-0.001
	c-3.978-10.897-11.962-19.59-22.481-24.479c-10.518-4.89-22.315-5.39-33.214-1.41c-10.892,3.978-19.585,11.962-24.475,22.48
	c-4.89,10.518-5.393,22.309-1.415,33.2C370.18,158.064,362.192,180.133,354.296,190.954z"/>
<path d="M256.004,196.281c-6.879,0-12.455-5.576-12.455-12.455v-62.275c0-35.612,6.901-64.487,20.509-85.822
	c12.216-19.149,29.876-31.513,49.73-34.814c32.658-5.429,64.236,13.74,75.124,45.575c2.226,6.509-1.246,13.59-7.754,15.815
	c-6.511,2.227-13.588-1.245-15.815-7.754c-6.93-20.263-26.896-32.481-47.469-29.064c-23.888,3.972-49.416,31.294-49.416,96.063
	v62.275C268.458,190.704,262.883,196.281,256.004,196.281z"/>
<path d="M142.19,285.246c-5.145,0-10.372-0.883-15.479-2.748c-4.299-1.572-8.276-3.745-11.842-6.448
	c-11.908,8.366-27.523,10.752-41.664,5.589c-14.145-5.17-24.55-17.061-28.264-31.131c-4.465-0.23-8.902-1.128-13.197-2.692
	c-23.473-8.585-35.579-34.641-27.007-58.091c2.147-5.875,7.27-9.438,13.318-8.098c2.237-0.064,19.587-1.82,33.448-39.787l0,0
	c12.923-35.392,52.238-53.669,87.636-40.745c17.148,6.261,30.828,18.826,38.524,35.377c7.693,16.55,8.483,35.105,2.221,52.25
	c-14.638,40.079-0.475,51.769-0.323,51.862c5.072,3.09,7.255,9.332,5.216,14.911C178.074,273.837,160.672,285.245,142.19,285.246z
	 M115.188,246.088c0.07,0,0.139,0,0.209,0.001c4.037,0.067,7.789,2.087,10.07,5.42c2.395,3.5,5.78,6.124,9.791,7.591
	c8.18,2.987,17.066,0.375,22.442-5.872c-7.896-10.821-15.884-32.891-1.216-73.053c3.979-10.894,3.479-22.685-1.41-33.202
	c-4.89-10.517-13.583-18.501-24.479-22.479c-22.5-8.216-47.483,3.399-55.695,25.889c-14.663,40.162-34.997,51.885-48.007,55.066
	c0.081,8.241,5.196,15.97,13.385,18.965c3.999,1.455,8.289,1.632,12.386,0.501c3.887-1.076,8.057-0.197,11.185,2.354
	c3.126,2.55,4.825,6.457,4.556,10.482c-0.599,8.974,4.889,17.4,13.345,20.491c8.449,3.086,18.073,0.177,23.4-7.073
	C107.501,247.971,111.23,246.088,115.188,246.088z"/>
<path d="M256.004,373.763c-6.879,0-12.455-5.576-12.455-12.455V183.826c0-64.766-25.525-92.089-49.412-96.063
	c-20.58-3.424-40.551,8.801-47.484,29.065c-2.228,6.508-9.311,9.978-15.816,7.752c-6.509-2.227-9.979-9.309-7.752-15.816
	c10.896-31.838,42.497-51.007,75.14-45.571c19.853,3.303,37.513,15.668,49.727,34.816c13.608,21.334,20.508,50.208,20.508,85.818
	v177.482C268.459,368.187,262.883,373.763,256.004,373.763z"/>
<path d="M308.9,512H203.108c-5.627,0-10.556-3.773-12.023-9.205l-37.365-138.237c-1.011-3.743-0.223-7.742,2.135-10.821
	c2.356-3.079,6.012-4.884,9.889-4.884h180.521c3.876,0,7.533,1.805,9.889,4.884c2.356,3.079,3.145,7.079,2.134,10.821
	l-13.576,50.231l0,0l-23.789,88.006C319.456,508.227,314.527,512,308.9,512z M212.644,487.09h86.721l30.633-113.327H182.012
	L212.644,487.09z"/>
<path d="M367.438,423.994h-34.749c-6.878,0-12.455-5.576-12.455-12.455c0-6.879,5.577-12.455,12.455-12.455h34.749
	c6.878,0,12.455,5.576,12.455,12.455C379.893,418.418,374.317,423.994,367.438,423.994z"/>
<path d="M298.247,423.994h-4.672c-6.878,0-12.455-5.576-12.455-12.455c0-6.879,5.577-12.455,12.455-12.455h4.672
	c6.878,0,12.455,5.576,12.455,12.455C310.702,418.418,305.126,423.994,298.247,423.994z"/>
<path d="M260.052,423.994H144.57c-6.879,0-12.455-5.576-12.455-12.455c0-6.879,5.576-12.455,12.455-12.455h115.482
	c6.878,0,12.455,5.576,12.455,12.455C272.507,418.418,266.931,423.994,260.052,423.994z"/>
</svg>