<?xml version="1.0" encoding="iso-8859-1"?>
<!-- Uploaded to: SVG Repo, www.svgrepo.com, Generator: SVG Repo Mixer Tools -->
<svg height="800px" width="800px" version="1.1" id="Layer_1" xmlns="http://www.w3.org/2000/svg" xmlns:xlink="http://www.w3.org/1999/xlink" 
	 viewBox="0 0 392.58 392.58" xml:space="preserve">
<path style="fill:#FFFFFF;" d="M151.353,22.23H49.535v123.798c41.891-20.881,76.735-39.046,101.754-53.139V22.23H151.353z"/>
<path style="fill:#FFC10D;" d="M151.353,117.648c-26.311,14.545-60.38,32.129-101.754,52.558c0,0-1.034,34.004-2.909,48.614
	c37.042-17.842,75.83-43.248,104.727-63.741v-37.43H151.353z"/>
<path style="fill:#56ACE0;" d="M151.806,214.811c-0.323-1.099-0.517-33.164-0.517-33.164
	c-31.741,21.786-71.952,46.998-109.317,63.289c-2.715,12.283-5.947,24.242-9.891,35.685c-7.434,21.398-10.408,39.693-9.051,53.915
	C72.549,296.525,122.198,246.424,151.806,214.811z"/>
<path style="fill:#FFC10D;" d="M199.515,252.759l-31.418-23.467C136.743,262.65,83.539,316.5,30.723,355.999
	c5.947,7.564,19.329,16.614,52.558,14.093c5.172-1.228,31.741-7.24,64.259-10.15C171.458,324.516,188.59,283.595,199.515,252.759z"
	/>
<path style="fill:#56ACE0;" d="M217.745,266.335c-9.956,27.281-24.372,60.897-43.442,92.186c12.994-0.259,25.083,0.323,36.073,1.681
	c6.4,0.776,13.317,1.422,20.945,1.745c9.503-24.178,15.774-52.234,19.653-74.279C238.561,280.945,227.442,273.769,217.745,266.335z"
	/>
<path style="fill:#FFFFFF;" d="M349.301,362.593c8.145,0,15.386-3.556,19.394-9.438c7.628-10.602-5.56-22.432-25.341-28.897
	c-15.127-4.202-42.99-12.8-72.145-26.44c-3.685,19.782-9.115,43.119-16.937,64.646C255.305,362.529,349.301,362.593,349.301,362.593
	z"/>
<path style="fill:#194F82;" d="M349.171,303.377c-63.935-17.39-127.16-57.6-175.968-97.293l0,0l-0.129-194.78
	c0-6.012-4.848-10.925-10.925-10.925H38.674c-6.012,0-10.925,4.848-10.925,10.925c0,94.966,6.594,209.648-16.291,262.141
	c-14.869,34.069-13.834,63.354-5.042,83.846c10.02,23.273,32.065,34.909,65.681,34.909c4.331,0,46.158-8.339,82.23-11.055l0,0
	c19.911-1.487,53.269,0.646,53.269,0.646c11.119,2.263,140.865,4.848,141.576,2.65c15.321,0,29.285-7.111,37.43-18.941
	C404.315,339.062,379.943,312.169,349.171,303.377z M210.44,360.137c-10.99-1.422-23.079-1.875-36.073-1.681
	c19.071-31.224,33.487-64.905,43.442-92.186c9.762,7.434,20.816,14.545,33.228,21.333c-3.879,22.044-10.15,50.166-19.653,74.279
	C223.693,361.559,216.84,360.977,210.44,360.137z M30.723,355.999c52.816-39.499,106.149-93.285,137.374-126.707l31.418,23.402
	c-10.925,30.836-27.992,71.758-51.846,107.119c-32.582,2.844-59.087,8.857-64.259,10.15
	C50.052,372.613,36.606,363.563,30.723,355.999z M32.08,280.557c3.943-11.442,7.24-23.402,9.891-35.685
	c37.301-16.291,77.576-41.438,109.317-63.289c0,0,0.129,32.065,0.517,33.164c-29.673,31.677-79.257,81.842-128.84,119.79
	C21.608,320.25,24.646,301.955,32.08,280.557z M49.535,22.23h101.754v70.529c-25.018,14.158-59.863,32.323-101.754,53.139
	C49.535,145.898,49.535,22.23,49.535,22.23z M49.535,170.27c41.309-20.493,75.442-38.077,101.754-52.558v37.43
	c-28.897,20.428-67.685,45.834-104.727,63.741C48.63,204.274,49.535,170.27,49.535,170.27z M343.418,324.258
	c19.717,6.465,32.905,18.295,25.341,28.897c-4.008,5.947-11.313,9.438-19.394,9.438c0,0-93.931-0.065-94.966-0.065
	c7.758-21.527,13.188-44.865,16.937-64.646C300.428,311.522,328.226,320.12,343.418,324.258z"/>
</svg>