<?xml version="1.0" encoding="iso-8859-1"?>
<!-- Uploaded to: SVG Repo, www.svgrepo.com, Generator: SVG Repo Mixer Tools -->
<svg height="800px" width="800px" version="1.1" id="Layer_1" xmlns="http://www.w3.org/2000/svg" xmlns:xlink="http://www.w3.org/1999/xlink" 
	 viewBox="0 0 512 512" xml:space="preserve">
<path style="fill:#FFB969;" d="M332.208,152.989c-20.867-2.669-43.75-4.209-68.735-4.464l-41.578,0.797
	c-23.335,1.168-44.625,3.549-63.933,6.999l-37.768,8.791C42.164,188.093,7.11,232.509,8.234,283.085
	C9.875,356.953,178.751,363.518,256,363.518s246.124-6.566,247.766-80.433c1.193-53.671-38.36-100.4-126.773-121.945
	L332.208,152.989z"/>
<g>
	<path style="fill:#FFA561;" d="M158.303,272.484c10.577,0,19.152-8.574,19.152-19.152c0-36.94-9.72-71.55-19.492-97.015
		c-13.557,2.422-26.143,5.367-37.768,8.791c9.078,22.461,18.957,54.62,18.957,88.224
		C139.151,263.911,147.726,272.484,158.303,272.484z"/>
	<path style="fill:#FFA561;" d="M266.914,272.484c10.577,0,19.152-8.574,19.152-19.152c0-40.859-11.893-78.875-22.592-104.809
		c-2.472-0.025-4.961-0.04-7.475-0.04c-11.826,0-23.181,0.29-34.104,0.837c9.995,21.14,25.867,61.419,25.867,104.013
		C247.762,263.911,256.337,272.484,266.914,272.484z"/>
	<path style="fill:#FFA561;" d="M375.525,272.484c10.577,0,19.152-8.574,19.152-19.152c0-34.658-8.557-67.265-17.684-92.193
		c-13.739-3.348-28.654-6.089-44.784-8.152c9.994,21.919,24.165,60.096,24.165,100.345
		C356.373,263.911,364.948,272.484,375.525,272.484z"/>
</g>
<path style="opacity:0.1;enable-background:new    ;" d="M62.953,283.085c-1.124-50.576,33.93-94.991,111.962-117.975l37.768-8.791
	c19.307-3.449,40.597-5.83,63.932-6.999l9.428-0.181c-7.331-0.321-14.838-0.537-22.569-0.616l-41.578,0.797
	c-23.335,1.168-44.625,3.549-63.932,6.999l-37.768,8.791C42.164,188.093,7.11,232.509,8.234,283.085
	C9.875,356.953,178.751,363.519,256,363.519c8.19,0,17.418-0.076,27.36-0.295C199.533,361.368,64.419,349.12,62.953,283.085z"/>
<path d="M53.38,207.166c3.506-2.874,4.019-8.046,1.145-11.551c-2.874-3.506-8.045-4.019-11.551-1.145
	c-28.861,23.655-43.711,54.36-42.946,88.797c0.807,36.304,35.144,61.796,102.059,75.768c40.325,8.42,92.11,12.69,153.914,12.69
	c60.677,0,111.744-4.125,151.781-12.258c4.443-0.903,7.313-5.236,6.409-9.678c-0.902-4.443-5.236-7.312-9.678-6.41
	c-38.964,7.916-88.932,11.93-148.513,11.93c-60.679,0-111.335-4.153-150.559-12.344c-58.443-12.203-88.388-32.412-89.003-60.064
	C15.791,253.695,28.564,227.505,53.38,207.166z"/>
<path d="M263.531,140.316c-2.492-0.025-4.999-0.042-7.532-0.042c-11.666,0-23.279,0.286-34.515,0.847c0,0-0.001,0-0.002,0
	c-23.17,1.16-45.026,3.555-64.963,7.116c-0.004,0.001-0.009,0.002-0.013,0.002c-13.649,2.439-26.647,5.465-38.632,8.996
	c-16.72,4.925-32.006,10.98-45.432,17.994c-4.017,2.099-5.573,7.059-3.474,11.076c2.098,4.017,7.057,5.574,11.076,3.474
	c10.544-5.509,22.39-10.39,35.273-14.563c7.666,20.484,15.624,48.802,15.624,78.115c0,15.086,12.273,27.36,27.36,27.36
	s27.36-12.273,27.36-27.36c0-34.568-8.364-67.005-16.583-90.531c14.959-2.31,30.94-3.975,47.7-4.97
	c9.425,20.985,22.776,57.431,22.776,95.5c0,15.086,12.273,27.36,27.36,27.36c15.086,0,27.36-12.273,27.36-27.36
	c0-36.727-9.334-71.117-18.682-96.355c17.891,0.505,34.984,1.714,51.017,3.607c8.816,20.21,21.557,55.81,21.557,92.748
	c0,15.086,12.273,27.36,27.36,27.36s27.36-12.273,27.36-27.36c0-25.583-4.44-52.526-13.18-80.277
	c33.928,10.005,60.272,24.358,78.431,42.773c18.764,19.028,27.99,41.594,27.424,67.074c-0.479,21.553-19.124,38.74-55.417,51.082
	c-4.291,1.459-6.588,6.122-5.128,10.414c1.162,3.416,4.352,5.567,7.77,5.567c0.877,0,1.767-0.141,2.644-0.439
	c43.507-14.796,65.895-37.089,66.543-66.259c0.66-29.663-10.457-56.969-32.146-78.964c-22.868-23.191-56.812-40.396-100.889-51.137
	c-14.185-3.457-29.556-6.255-45.686-8.319c-21.53-2.753-44.978-4.278-69.691-4.531C263.55,140.316,263.541,140.316,263.531,140.316z
	 M169.248,253.334c0,6.034-4.909,10.944-10.944,10.944c-6.034,0-10.944-4.909-10.944-10.944c0-30.981-8.113-60.646-16.11-82.37
	l21.534-5.012C166.311,203.664,169.248,234.07,169.248,253.334z M370.861,168.367c10.358,29.573,15.609,58.137,15.609,84.967
	c0,6.034-4.909,10.944-10.944,10.944s-10.944-4.909-10.944-10.944c0-33.519-9.23-65.409-18.843-89.539L370.861,168.367z
	 M277.859,253.334c0,6.034-4.909,10.944-10.944,10.944s-10.944-4.909-10.944-10.944c0-37.469-11.839-73.139-21.523-96.044
	l23.525-0.451C267.494,181.091,277.859,216.057,277.859,253.334z"/>
</svg>