<?xml version="1.0" encoding="iso-8859-1"?>
<!-- Uploaded to: SVG Repo, www.svgrepo.com, Generator: SVG Repo Mixer Tools -->
<svg height="800px" width="800px" version="1.1" id="Layer_1" xmlns="http://www.w3.org/2000/svg" xmlns:xlink="http://www.w3.org/1999/xlink" 
	 viewBox="0 0 512 512" xml:space="preserve">
<g transform="translate(1)">
	<g>
		<polygon style="fill:#FFE100;" points="7.533,277.333 502.467,277.333 502.467,243.2 7.533,243.2 		"/>
		<path style="fill:#FFE100;" d="M109.933,490.667H24.6V277.333h460.8v213.333h-85.333c0-80.213-64.853-145.067-145.067-145.067
			S109.933,410.453,109.933,490.667"/>
		<polygon style="fill:#FFE100;" points="24.6,243.2 75.8,243.2 75.8,174.933 24.6,174.933 		"/>
		<polygon style="fill:#FFE100;" points="75.8,140.8 24.6,140.8 41.667,72.533 58.733,72.533 		"/>
		<polygon style="fill:#FFE100;" points="7.533,174.933 92.867,174.933 92.867,140.8 7.533,140.8 		"/>
		<path style="fill:#FFE100;" d="M75.8,46.933c0,14.507-11.093,25.6-25.6,25.6s-25.6-11.093-25.6-25.6s11.093-25.6,25.6-25.6
			S75.8,32.427,75.8,46.933"/>
		<path style="fill:#FFE100;" d="M485.4,46.933c0,14.507-11.093,25.6-25.6,25.6s-25.6-11.093-25.6-25.6s11.093-25.6,25.6-25.6
			S485.4,32.427,485.4,46.933"/>
	</g>
	<path style="fill:#FFA800;" d="M459.8,21.333c-3.413,0-5.973,0.853-8.533,1.707c10.24,3.413,17.067,12.8,17.067,23.893
		s-6.827,20.48-17.067,23.893c2.56,0.853,5.12,1.707,8.533,1.707c14.507,0,25.6-11.093,25.6-25.6S474.307,21.333,459.8,21.333"/>
	<path style="fill:#FFFFFF;" d="M50.2,21.333c3.413,0,5.973,0.853,8.533,1.707c-10.24,3.413-17.067,12.8-17.067,23.893
		s6.827,20.48,17.067,23.893c-2.56,0.853-5.12,1.707-8.533,1.707c-14.507,0-25.6-11.093-25.6-25.6S35.693,21.333,50.2,21.333"/>
	<g>
		<polygon style="fill:#FFE100;" points="434.2,243.2 485.4,243.2 485.4,174.933 434.2,174.933 		"/>
		<polygon style="fill:#FFE100;" points="485.4,140.8 434.2,140.8 451.267,72.533 468.333,72.533 		"/>
		<polygon style="fill:#FFE100;" points="417.133,174.933 502.467,174.933 502.467,140.8 417.133,140.8 		"/>
	</g>
	<g>
		<polygon style="fill:#FFA800;" points="485.4,174.933 502.467,174.933 502.467,140.8 485.4,140.8 		"/>
		<polygon style="fill:#FFA800;" points="485.4,277.333 502.467,277.333 502.467,243.2 485.4,243.2 		"/>
		<polygon style="fill:#FFA800;" points="468.333,243.2 485.4,243.2 485.4,174.933 468.333,174.933 		"/>
		<polygon style="fill:#FFA800;" points="468.333,490.667 485.4,490.667 485.4,277.333 468.333,277.333 		"/>
	</g>
	<g>
		<polygon style="fill:#FFFFFF;" points="7.533,174.933 24.6,174.933 24.6,140.8 7.533,140.8 		"/>
		<polygon style="fill:#FFFFFF;" points="7.533,277.333 24.6,277.333 24.6,243.2 7.533,243.2 		"/>
		<polygon style="fill:#FFFFFF;" points="24.6,243.2 41.667,243.2 41.667,174.933 24.6,174.933 		"/>
		<polygon style="fill:#FFFFFF;" points="24.6,490.667 41.667,490.667 41.667,277.333 24.6,277.333 		"/>
	</g>
	<g>
		<path style="fill:#FFE100;" d="M425.667,174.933H101.4c-5.12,0-8.533-3.413-8.533-8.533s3.413-8.533,8.533-8.533h324.267
			c5.12,0,8.533,3.413,8.533,8.533S430.787,174.933,425.667,174.933z"/>
		<path style="fill:#FFE100;" d="M135.533,260.267c-5.12,0-8.533-3.413-8.533-8.533V166.4c0-5.12,3.413-8.533,8.533-8.533
			s8.533,3.413,8.533,8.533v85.333C144.067,256.853,140.653,260.267,135.533,260.267z"/>
		<path style="fill:#FFE100;" d="M178.2,260.267c-5.12,0-8.533-3.413-8.533-8.533V166.4c0-5.12,3.413-8.533,8.533-8.533
			c5.12,0,8.533,3.413,8.533,8.533v85.333C186.733,256.853,183.32,260.267,178.2,260.267z"/>
		<path style="fill:#FFE100;" d="M220.867,260.267c-5.12,0-8.533-3.413-8.533-8.533V166.4c0-5.12,3.413-8.533,8.533-8.533
			c5.12,0,8.533,3.413,8.533,8.533v85.333C229.4,256.853,225.987,260.267,220.867,260.267z"/>
		<path style="fill:#FFE100;" d="M263.533,260.267c-5.12,0-8.533-3.413-8.533-8.533V166.4c0-5.12,3.413-8.533,8.533-8.533
			c5.12,0,8.533,3.413,8.533,8.533v85.333C272.067,256.853,268.653,260.267,263.533,260.267z"/>
		<path style="fill:#FFE100;" d="M306.2,260.267c-5.12,0-8.533-3.413-8.533-8.533V166.4c0-5.12,3.413-8.533,8.533-8.533
			s8.533,3.413,8.533,8.533v85.333C314.733,256.853,311.32,260.267,306.2,260.267z"/>
		<path style="fill:#FFE100;" d="M348.867,260.267c-5.12,0-8.533-3.413-8.533-8.533V166.4c0-5.12,3.413-8.533,8.533-8.533
			c5.12,0,8.533,3.413,8.533,8.533v85.333C357.4,256.853,353.987,260.267,348.867,260.267z"/>
		<path style="fill:#FFE100;" d="M391.533,260.267c-5.12,0-8.533-3.413-8.533-8.533V166.4c0-5.12,3.413-8.533,8.533-8.533
			s8.533,3.413,8.533,8.533v85.333C400.067,256.853,396.653,260.267,391.533,260.267z"/>
		<path style="fill:#FFE100;" d="M178.2,490.667c-14.507,0-25.6-11.093-25.6-25.6c0-5.12,3.413-8.533,8.533-8.533
			c5.12,0,8.533,3.413,8.533,8.533c0,5.12,3.413,8.533,8.533,8.533c5.12,0,8.533-3.413,8.533-8.533c0-5.12,3.413-8.533,8.533-8.533
			c5.12,0,8.533,3.413,8.533,8.533C203.8,479.573,192.707,490.667,178.2,490.667z"/>
		<path style="fill:#FFE100;" d="M331.8,490.667c-14.507,0-25.6-11.093-25.6-25.6c0-5.12,3.413-8.533,8.533-8.533
			c5.12,0,8.533,3.413,8.533,8.533c0,5.12,3.413,8.533,8.533,8.533s8.533-3.413,8.533-8.533c0-5.12,3.413-8.533,8.533-8.533
			c5.12,0,8.533,3.413,8.533,8.533C357.4,479.573,346.307,490.667,331.8,490.667z"/>
		<path style="fill:#FFE100;" d="M255,448c-14.507,0-25.6-11.093-25.6-25.6c0-5.12,3.413-8.533,8.533-8.533
			c5.12,0,8.533,3.413,8.533,8.533s3.413,8.533,8.533,8.533s8.533-3.413,8.533-8.533s3.413-8.533,8.533-8.533
			s8.533,3.413,8.533,8.533C280.6,436.907,269.507,448,255,448z"/>
	</g>
	<path d="M502.467,285.867H7.533c-5.12,0-8.533-3.413-8.533-8.533V243.2c0-5.12,3.413-8.533,8.533-8.533h494.933
		c5.12,0,8.533,3.413,8.533,8.533v34.133C511,282.453,507.587,285.867,502.467,285.867z M16.067,268.8h477.867v-17.067H16.067V268.8
		z"/>
	<path d="M485.4,499.2h-85.333c-5.12,0-8.533-3.413-8.533-8.533c0-75.093-61.44-136.533-136.533-136.533
		s-136.533,61.44-136.533,136.533c0,5.12-3.413,8.533-8.533,8.533H24.6c-5.12,0-8.533-3.413-8.533-8.533V277.333
		c0-5.12,3.413-8.533,8.533-8.533h460.8c5.12,0,8.533,3.413,8.533,8.533v213.333C493.933,495.787,490.52,499.2,485.4,499.2z
		 M408.6,482.133h68.267V285.867H33.133v196.267H101.4c4.267-81.067,71.68-145.067,153.6-145.067S404.333,401.067,408.6,482.133z"/>
	<path d="M75.8,251.733H24.6c-5.12,0-8.533-3.413-8.533-8.533v-68.267c0-5.12,3.413-8.533,8.533-8.533h51.2
		c5.12,0,8.533,3.413,8.533,8.533V243.2C84.333,248.32,80.92,251.733,75.8,251.733z M33.133,234.667h34.133v-51.2H33.133V234.667z"
		/>
	<path d="M75.8,149.333L75.8,149.333H24.6c-2.56,0-5.12-0.853-6.827-3.413c-1.707-2.56-1.707-4.267-1.707-6.827l17.067-68.267
		C33.987,66.56,37.4,64,41.667,64h17.067c4.267,0,7.68,2.56,8.533,6.827l17.067,66.56c0,0.853,0,1.707,0,3.413
		C84.333,145.92,80.92,149.333,75.8,149.333z M35.693,132.267h29.013l-12.8-51.2h-3.413L35.693,132.267z"/>
	<path d="M92.867,183.467H7.533c-5.12,0-8.533-3.413-8.533-8.533V140.8c0-5.12,3.413-8.533,8.533-8.533h85.333
		c5.12,0,8.533,3.413,8.533,8.533v34.133C101.4,180.053,97.987,183.467,92.867,183.467z M16.067,166.4h68.267v-17.067H16.067V166.4z
		"/>
	<path d="M50.2,81.067c-18.773,0-34.133-15.36-34.133-34.133S31.427,12.8,50.2,12.8s34.133,15.36,34.133,34.133
		S68.973,81.067,50.2,81.067z M50.2,29.867c-9.387,0-17.067,7.68-17.067,17.067S40.813,64,50.2,64s17.067-7.68,17.067-17.067
		S59.587,29.867,50.2,29.867z"/>
	<path d="M485.4,251.733h-51.2c-5.12,0-8.533-3.413-8.533-8.533v-68.267c0-5.12,3.413-8.533,8.533-8.533h51.2
		c5.12,0,8.533,3.413,8.533,8.533V243.2C493.933,248.32,490.52,251.733,485.4,251.733z M442.733,234.667h34.133v-51.2h-34.133
		V234.667z"/>
	<path d="M485.4,149.333L485.4,149.333h-51.2c-2.56,0-5.12-0.853-6.827-3.413c-1.707-2.56-1.707-4.267-1.707-6.827l17.067-68.267
		C443.587,66.56,447,64,451.267,64h17.067c4.267,0,7.68,2.56,8.533,6.827l17.067,66.56c0,0.853,0,1.707,0,3.413
		C493.933,145.92,490.52,149.333,485.4,149.333z M445.293,132.267h29.013l-12.8-51.2h-3.413L445.293,132.267z"/>
	<path d="M502.467,183.467h-85.333c-5.12,0-8.533-3.413-8.533-8.533V140.8c0-5.12,3.413-8.533,8.533-8.533h85.333
		c5.12,0,8.533,3.413,8.533,8.533v34.133C511,180.053,507.587,183.467,502.467,183.467z M425.667,166.4h68.267v-17.067h-68.267
		V166.4z"/>
	<path d="M459.8,81.067c-18.773,0-34.133-15.36-34.133-34.133S441.027,12.8,459.8,12.8s34.133,15.36,34.133,34.133
		S478.573,81.067,459.8,81.067z M459.8,29.867c-9.387,0-17.067,7.68-17.067,17.067S450.413,64,459.8,64s17.067-7.68,17.067-17.067
		S469.187,29.867,459.8,29.867z"/>
	<path d="M417.133,166.4H92.867c-5.12,0-8.533-3.413-8.533-8.533c0-5.12,3.413-8.533,8.533-8.533h324.267
		c5.12,0,8.533,3.413,8.533,8.533C425.667,162.987,422.253,166.4,417.133,166.4z"/>
	<path d="M127,251.733c-5.12,0-8.533-3.413-8.533-8.533v-85.333c0-5.12,3.413-8.533,8.533-8.533s8.533,3.413,8.533,8.533V243.2
		C135.533,248.32,132.12,251.733,127,251.733z"/>
	<path d="M169.667,251.733c-5.12,0-8.533-3.413-8.533-8.533v-85.333c0-5.12,3.413-8.533,8.533-8.533c5.12,0,8.533,3.413,8.533,8.533
		V243.2C178.2,248.32,174.787,251.733,169.667,251.733z"/>
	<path d="M212.333,251.733c-5.12,0-8.533-3.413-8.533-8.533v-85.333c0-5.12,3.413-8.533,8.533-8.533c5.12,0,8.533,3.413,8.533,8.533
		V243.2C220.867,248.32,217.453,251.733,212.333,251.733z"/>
	<path d="M255,251.733c-5.12,0-8.533-3.413-8.533-8.533v-85.333c0-5.12,3.413-8.533,8.533-8.533s8.533,3.413,8.533,8.533V243.2
		C263.533,248.32,260.12,251.733,255,251.733z"/>
	<path d="M297.667,251.733c-5.12,0-8.533-3.413-8.533-8.533v-85.333c0-5.12,3.413-8.533,8.533-8.533s8.533,3.413,8.533,8.533V243.2
		C306.2,248.32,302.787,251.733,297.667,251.733z"/>
	<path d="M340.333,251.733c-5.12,0-8.533-3.413-8.533-8.533v-85.333c0-5.12,3.413-8.533,8.533-8.533c5.12,0,8.533,3.413,8.533,8.533
		V243.2C348.867,248.32,345.453,251.733,340.333,251.733z"/>
	<path d="M383,251.733c-5.12,0-8.533-3.413-8.533-8.533v-85.333c0-5.12,3.413-8.533,8.533-8.533c5.12,0,8.533,3.413,8.533,8.533
		V243.2C391.533,248.32,388.12,251.733,383,251.733z"/>
	<path d="M178.2,482.133c-14.507,0-25.6-11.093-25.6-25.6c0-5.12,3.413-8.533,8.533-8.533c5.12,0,8.533,3.413,8.533,8.533
		s3.413,8.533,8.533,8.533c5.12,0,8.533-3.413,8.533-8.533s3.413-8.533,8.533-8.533c5.12,0,8.533,3.413,8.533,8.533
		C203.8,471.04,192.707,482.133,178.2,482.133z"/>
	<path d="M331.8,482.133c-14.507,0-25.6-11.093-25.6-25.6c0-5.12,3.413-8.533,8.533-8.533c5.12,0,8.533,3.413,8.533,8.533
		s3.413,8.533,8.533,8.533s8.533-3.413,8.533-8.533s3.413-8.533,8.533-8.533c5.12,0,8.533,3.413,8.533,8.533
		C357.4,471.04,346.307,482.133,331.8,482.133z"/>
	<path d="M255,439.467c-14.507,0-25.6-11.093-25.6-25.6c0-5.12,3.413-8.533,8.533-8.533c5.12,0,8.533,3.413,8.533,8.533
		c0,5.12,3.413,8.533,8.533,8.533s8.533-3.413,8.533-8.533c0-5.12,3.413-8.533,8.533-8.533s8.533,3.413,8.533,8.533
		C280.6,428.373,269.507,439.467,255,439.467z"/>
	<path d="M92.867,405.333H24.6c-5.12,0-8.533-3.413-8.533-8.533s3.413-8.533,8.533-8.533h68.267c5.12,0,8.533,3.413,8.533,8.533
		S97.987,405.333,92.867,405.333z"/>
	<path d="M67.267,354.133H24.6c-5.12,0-8.533-3.413-8.533-8.533c0-5.12,3.413-8.533,8.533-8.533h42.667
		c5.12,0,8.533,3.413,8.533,8.533C75.8,350.72,72.387,354.133,67.267,354.133z"/>
	<path d="M485.4,405.333h-68.267c-5.12,0-8.533-3.413-8.533-8.533s3.413-8.533,8.533-8.533H485.4c5.12,0,8.533,3.413,8.533,8.533
		S490.52,405.333,485.4,405.333z"/>
	<path d="M485.4,354.133h-42.667c-5.12,0-8.533-3.413-8.533-8.533c0-5.12,3.413-8.533,8.533-8.533H485.4
		c5.12,0,8.533,3.413,8.533,8.533C493.933,350.72,490.52,354.133,485.4,354.133z"/>
</g>
</svg>