<?xml version="1.0" ?>
<!-- Uploaded to: SVG Repo, www.svgrepo.com, Generator: SVG Repo Mixer Tools -->
<svg width="800px" height="800px" viewBox="0 0 64 64" xmlns="http://www.w3.org/2000/svg">
<defs>
<style>.cls-1{fill:#b8b0a8;}.cls-2{fill:#f5ebe0;}.cls-3{fill:#64583e;}.cls-4{fill:#c7b07b;}.cls-5{fill:#8b8b8b;}.cls-6{fill:#bababa;}.cls-7{fill:none;stroke:#000000;stroke-linejoin:round;stroke-width:2px;}</style>
</defs>
<title/>
<g data-name="Layer 29" id="Layer_29">
<circle class="cls-1" cx="11" cy="53" r="9"/>
<circle class="cls-2" cx="11" cy="53" r="5"/>
<circle class="cls-1" cx="55" cy="9" r="7"/>
<polygon class="cls-3" points="35 56 40 12 24 2 8 12 13 56 35 56"/>
<polygon class="cls-4" points="31 52 35 14 24 7 13 14 17 52 31 52"/>
<circle class="cls-2" cx="55" cy="9" r="3"/>
<path class="cls-5" d="M56,62V33A15,15,0,0,0,41,18h0A15,15,0,0,0,26,33V62h3.59A3.41,3.41,0,0,0,32,61h0a3.41,3.41,0,0,1,2.41-1h1.18A3.41,3.41,0,0,1,38,61h0a3.41,3.41,0,0,0,2.41,1h1.18A3.41,3.41,0,0,0,44,61h0a3.41,3.41,0,0,1,2.41-1h1.18A3.41,3.41,0,0,1,50,61h0a3.41,3.41,0,0,0,2.41,1Z"/>
<path class="cls-6" d="M39,18.15A15,15,0,0,0,26,33V62h3.59A3.41,3.41,0,0,0,32,61a3.41,3.41,0,0,1,2.41-1h1.18A3.41,3.41,0,0,1,38,61a3.41,3.41,0,0,0,2.41,1h1.18A3.41,3.41,0,0,0,44,61a3.41,3.41,0,0,1,2.41-1h1.18A3.41,3.41,0,0,1,50,61a3.4,3.4,0,0,0,2,1V33A15,15,0,0,0,39,18.15Z"/>
<ellipse class="cls-2" cx="41" cy="47" rx="4" ry="7"/>
<ellipse class="cls-2" cx="47" cy="32" rx="3" ry="4"/>
<ellipse class="cls-2" cx="35" cy="32" rx="3" ry="4"/>
<path class="cls-7" d="M56,62V33A15,15,0,0,0,41,18h0A15,15,0,0,0,26,33V62h3.59A3.41,3.41,0,0,0,32,61h0a3.41,3.41,0,0,1,2.41-1h1.18A3.41,3.41,0,0,1,38,61h0a3.41,3.41,0,0,0,2.41,1h1.18A3.41,3.41,0,0,0,44,61h0a3.41,3.41,0,0,1,2.41-1h1.18A3.41,3.41,0,0,1,50,61h0a3.41,3.41,0,0,0,2.41,1Z"/>
<ellipse class="cls-7" cx="35" cy="32" rx="3" ry="4"/>
<ellipse class="cls-7" cx="47" cy="32" rx="3" ry="4"/>
<ellipse class="cls-7" cx="41" cy="47" rx="4" ry="7"/>
<polyline class="cls-7" points="26 56 13 56 8 12 24 2 40 12 39.32 18"/>
<polyline class="cls-7" points="26 52 17 52 13 14 24 7 35 13.75 34.35 20"/>
<line class="cls-7" x1="24" x2="24" y1="12" y2="24"/>
<line class="cls-7" x1="19" x2="29" y1="16" y2="16"/>
<circle class="cls-7" cx="55" cy="9" r="7"/>
<circle class="cls-7" cx="55" cy="9" r="3"/>
<path class="cls-7" d="M19.49,56A9,9,0,1,1,11,44c.34,0,.67,0,1,0"/>
<path class="cls-7" d="M11,58a5,5,0,0,1-2-9.58"/>
</g>
</svg>