<?xml version="1.0" encoding="utf-8"?>

<!DOCTYPE svg PUBLIC "-//W3C//DTD SVG 1.0//EN" "http://www.w3.org/TR/2001/REC-SVG-20010904/DTD/svg10.dtd">
<!-- Uploaded to: SVG Repo, www.svgrepo.com, Generator: SVG Repo Mixer Tools -->
<svg version="1.0" id="Layer_1" xmlns="http://www.w3.org/2000/svg" xmlns:xlink="http://www.w3.org/1999/xlink" 
	 width="800px" height="800px" viewBox="0 0 64 64" enable-background="new 0 0 64 64" xml:space="preserve">
<g>
	<g>
		<polygon fill="#F9EBB2" points="44,13.656 44,16 46.344,16 		"/>
		<path fill="#F9EBB2" d="M40,24c-2.211,0-4-1.789-4-4V8H12v48h40V24H40z"/>
	</g>
	<path fill="#394240" d="M24,40c-2.211,0-4,1.789-4,4s1.789,4,4,4h16c2.211,0,4-1.789,4-4s-1.789-4-4-4H24z"/>
	<path fill="#394240" d="M24,32h4c2.211,0,4-1.789,4-4s-1.789-4-4-4h-4c-2.211,0-4,1.789-4,4S21.789,32,24,32z"/>
	<path fill="#394240" d="M58.824,17.168L42.832,1.176C42.109,0.449,41.109,0,40,0H8C5.789,0,4,1.789,4,4v56c0,2.211,1.789,4,4,4h48
		c2.211,0,4-1.789,4-4V20C60,18.891,59.551,17.891,58.824,17.168z M44,13.656L46.344,16H44V13.656z M52,56H12V8h24v12
		c0,2.211,1.789,4,4,4h12V56z"/>
</g>
</svg>