<?xml version="1.0" encoding="iso-8859-1"?>
<!-- Uploaded to: SVG Repo, www.svgrepo.com, Generator: SVG Repo Mixer Tools -->
<svg height="800px" width="800px" version="1.1" id="Layer_1" xmlns="http://www.w3.org/2000/svg" xmlns:xlink="http://www.w3.org/1999/xlink" 
	 viewBox="0 0 512.001 512.001" xml:space="preserve">
<g>
	<g>
		<path style="fill:#DD2645;" d="M112.06,215.486c11.732,0,21.326-9.595,21.326-21.324v-38.384c0-11.73-9.594-21.324-21.326-21.324
			H32.093c-11.73,0.001-21.324,9.595-21.324,21.325v38.384c0,11.729,9.594,21.324,21.324,21.324h79.966V215.486z"/>
		<path style="fill:#DD2645;" d="M133.385,194.163c0,11.729,9.594,21.324,21.324,21.324l32.03-0.002
			c13.506-21.198,29.826-41.833,46.552-61.363c4.424-5.167,9.775-11.855,14.864-19.666h-93.446c-11.73,0-21.324,9.594-21.324,21.324
			V194.163z"/>
		<path style="fill:#DD2645;" d="M306.56,167.653c-3.624,19.21-6.221,34.927-7.964,47.833h58.695
			c11.729,0,21.324-9.595,21.324-21.324v-38.384c0-11.73-9.595-21.324-21.324-21.324h-48.613
			C309.395,144.492,308.847,155.544,306.56,167.653z"/>
		<path style="fill:#DD2645;" d="M378.615,155.779v38.384c0,11.729,9.594,21.324,21.324,21.324h79.966
			c11.732,0,21.326-9.595,21.326-21.324v-38.384c0-11.73-9.594-21.324-21.326-21.324h-79.966
			C388.209,134.455,378.615,144.049,378.615,155.779z"/>
		<path style="fill:#DD2645;" d="M479.904,215.486h-79.966h-42.647h-58.695c-5.555,41.161-2.434,53.783,3.625,60.209
			c0,0,4.338-34.888,47.011-48.957c0,0-3.716,39.366,11.177,69.779h39.528h79.966c11.73,0,21.326-9.595,21.326-21.324v-38.381
			C501.23,225.081,491.635,215.486,479.904,215.486z"/>
		<path style="fill:#DD2645;" d="M153.999,296.53c3.373-27.175,15.857-54.549,32.744-81.044h-32.035h-42.649H32.093
			c-11.73,0-21.324,9.595-21.324,21.326v38.382c0,11.729,9.594,21.324,21.324,21.324h79.966c11.732,0,21.326,9.596,21.326,21.324
			C133.385,306.35,142.593,296.91,153.999,296.53z"/>
		<path style="fill:#DD2645;" d="M133.385,356.225V317.84c0-11.727-9.594-21.324-21.326-21.324H32.093
			c-11.73,0-21.324,9.596-21.324,21.324v38.384c0,11.729,9.594,21.326,21.324,21.326h79.966
			C123.79,377.55,133.385,367.953,133.385,356.225z"/>
		<path style="fill:#DD2645;" d="M133.385,317.84v38.384c0,11.729,9.594,21.326,21.324,21.326H176.8
			c-20.266-26.059-26.226-53.439-22.8-81.021C142.593,296.91,133.385,306.35,133.385,317.84z"/>
		<path style="fill:#DD2645;" d="M378.615,317.84v38.384c0,11.729,9.594,21.326,21.324,21.326h79.966
			c11.732,0,21.326-9.597,21.326-21.326V317.84c0-11.727-9.594-21.324-21.326-21.324h-79.966
			C388.209,296.517,378.615,306.113,378.615,317.84z"/>
		<path style="fill:#DD2645;" d="M479.904,377.55h-79.966h-37.871c-15.345,21.892-46.985,43.567-106.067,59.706
			c0,11.731,9.594,21.326,21.324,21.326h202.581c11.732,0,21.326-9.595,21.326-21.326v-38.382
			C501.23,387.145,491.635,377.55,479.904,377.55z"/>
		<path style="fill:#DD2645;" d="M255.997,437.256c-37.357-18.66-62.903-38.755-79.198-59.706h-22.091h-42.649H32.093
			c-11.73,0-21.324,9.592-21.324,21.324v38.382c0,11.731,9.594,21.326,21.324,21.326h202.581
			C246.406,458.582,255.999,448.987,255.997,437.256z"/>
	</g>
	<path style="fill:#EDA23F;" d="M176.799,377.55c16.295,20.951,41.842,41.046,79.2,59.706
		c59.082-16.139,90.722-37.813,106.069-59.706c19.971-28.491,12.35-57.346,1.717-74.847c-1.219-2.009-2.344-4.073-3.376-6.186
		c-14.893-30.412-11.177-69.779-11.177-69.779c-42.673,14.069-47.011,48.957-47.011,48.957c-6.059-6.425-9.18-19.048-3.625-60.209
		c1.743-12.907,4.339-28.623,7.964-47.833c2.286-12.109,2.836-23.161,2.111-33.197c-4.033-56.671-48.4-81.037-48.4-81.037
		c13.761,30.059,1.772,59.729-12.117,81.036c-5.089,7.811-10.438,14.499-14.864,19.666c-16.725,19.529-33.047,40.165-46.547,61.364
		c-16.888,26.495-29.371,53.868-32.744,81.044C150.574,324.112,156.533,351.491,176.799,377.55z"/>
</g>
<g>
	<path style="fill:#000003;" d="M512,155.779c0-17.696-14.397-32.093-32.096-32.093h-79.966c-8.18,0-15.649,3.08-21.324,8.136
		c-5.674-5.055-13.144-8.136-21.324-8.136h-39.043c-3.382-21.65-12.056-38.165-20.431-49.665
		c-14.716-20.21-31.649-29.649-32.363-30.041c-4.071-2.236-9.117-1.61-12.517,1.552c-3.401,3.162-4.393,8.147-2.46,12.37
		c8.969,19.594,6.171,41.644-8.264,65.783h-87.506c-8.18,0-15.649,3.08-21.324,8.136c-5.675-5.055-13.145-8.136-21.326-8.136H32.093
		C14.397,123.685,0,138.082,0,155.779v38.384c0,8.18,3.08,15.65,8.137,21.324C3.08,221.161,0,228.631,0,236.811v38.382
		c0,8.18,3.08,15.65,8.136,21.324C3.08,302.19,0,309.661,0,317.84v38.384c0,8.18,3.08,15.651,8.137,21.325
		C3.08,383.224,0,390.694,0,398.874v38.382c0,17.697,14.397,32.096,32.093,32.096h202.581c7.929,0,15.427-2.881,21.319-8.142
		c5.676,5.059,13.148,8.142,21.33,8.142h202.581c17.698,0,32.096-14.398,32.096-32.096v-38.382c0-8.18-3.08-15.65-8.137-21.324
		c5.055-5.675,8.137-13.145,8.137-21.325v-38.384c0-8.18-3.08-15.65-8.137-21.324c5.055-5.674,8.137-13.144,8.137-21.324v-38.383
		c0-8.18-3.08-15.651-8.137-21.325c5.055-5.674,8.137-13.145,8.137-21.324v-38.384H512z M399.938,145.225h79.966
		c5.82,0,10.556,4.733,10.556,10.554v38.384c0,5.819-4.734,10.553-10.556,10.553h-79.966c-5.819,0-10.554-4.733-10.554-10.553
		v-38.384C389.385,149.959,394.118,145.225,399.938,145.225z M490.46,236.811v38.382c0,5.819-4.734,10.554-10.556,10.554h-79.966
		h-32.494c-10.24-26.231-7.521-57.645-7.488-57.996c0.047-0.501,0.052-0.999,0.029-1.495h39.953h79.966
		C485.724,226.256,490.46,230.991,490.46,236.811z M490.46,317.84v38.384c0,5.82-4.734,10.556-10.556,10.556h-79.966
		c-5.819,0-10.554-4.734-10.554-10.556V317.84c0-5.819,4.734-10.554,10.554-10.554h79.966
		C485.724,307.287,490.46,312.021,490.46,317.84z M308.142,226.256h16.816c-7.688,4.867-13.633,10.383-18.217,15.902
		C307.002,237.474,307.474,232.16,308.142,226.256z M367.845,155.779v38.384c0,5.819-4.734,10.554-10.554,10.554h-46.224
		c1.604-10.411,3.623-22.077,6.075-35.066c1.631-8.638,2.425-16.775,2.558-24.425h37.59
		C363.11,145.225,367.845,149.959,367.845,155.779z M277.075,82.454c13.315,16.357,26.403,43.462,18.902,83.201
		c-3.648,19.321-6.3,35.324-8.087,48.672c-0.002,0.024-0.006,0.046-0.01,0.07c-5.959,44.552-2.241,59.407,6.504,68.686
		c2.861,3.036,7.211,4.194,11.178,2.897c3.966-1.297,6.818-4.718,7.334-8.858c0.14-0.977,3.216-20.543,25.22-33.635
		c0.437,15.186,2.929,37.595,12.362,57.202c0.173,0.412,0.38,0.807,0.601,1.192c1.087,2.177,2.234,4.328,3.503,6.417
		c4.652,7.655,14.493,27.918,5.424,50.689c-11.055,27.756-46.59,50.803-102.872,66.774c-53.302-27.365-84.061-59.708-91.438-96.167
		c-7.166-35.414,7.643-72.913,29.763-107.796c0.288-0.396,0.555-0.807,0.785-1.241c13.537-21.147,29.708-41.307,45.226-59.429
		c6.023-7.032,11.12-13.83,15.419-20.392c0.204-0.281,0.391-0.571,0.565-0.871C271.651,117.911,276.824,98.659,277.075,82.454z
		 M21.54,356.225V317.84c0-5.819,4.734-10.554,10.554-10.554h79.966c5.82,0,10.556,4.734,10.556,10.554v38.384
		c0,5.82-4.734,10.556-10.556,10.556H32.093C26.274,366.78,21.54,362.046,21.54,356.225z M21.54,275.193v-38.382
		c0-5.82,4.734-10.556,10.554-10.556h79.966h42.649h13.084c-10.698,19.25-18.975,39.251-22.92,59.491H112.06H32.093
		C26.274,285.747,21.54,281.013,21.54,275.193z M144.155,356.225v-24.647c0.138,0.763,0.275,1.525,0.429,2.288
		c2.3,11.366,6.407,22.362,12.241,32.915h-2.117C148.889,366.78,144.155,362.046,144.155,356.225z M154.709,145.225H226.7
		c-0.527,0.63-1.048,1.259-1.589,1.891c-15.055,17.58-30.662,37.012-44.214,57.6H154.71c-5.819,0-10.554-4.733-10.554-10.553
		v-38.384C144.155,149.959,148.889,145.225,154.709,145.225z M21.54,155.779c0-5.819,4.734-10.553,10.554-10.553h79.966
		c5.82,0,10.556,4.733,10.556,10.553v38.384c0,5.819-4.734,10.554-10.556,10.554H32.093c-5.819,0-10.554-4.733-10.554-10.554
		V155.779z M234.674,447.812H32.093c-5.819,0-10.554-4.734-10.554-10.556v-38.382c0-5.819,4.734-10.554,10.554-10.554h79.966h42.649
		h16.972c1.552,1.857,3.148,3.701,4.822,5.522c16.298,17.735,38.838,34.231,67.043,49.113
		C241.665,445.872,238.395,447.812,234.674,447.812z M490.46,437.256c0,5.82-4.734,10.556-10.556,10.556H277.323
		c-3.004,0-5.711-1.268-7.635-3.288c46.48-14.005,79.223-32.839,97.789-56.203h32.461h79.966c5.82,0,10.556,4.734,10.556,10.554
		L490.46,437.256L490.46,437.256z"/>
	<path style="fill:#000003;" d="M231.353,225.196c-4.968-3.277-11.646-1.907-14.922,3.057l-0.457,0.693
		c-3.242,4.987-1.826,11.657,3.161,14.899c1.814,1.178,3.847,1.742,5.859,1.742c3.525,0,6.978-1.728,9.041-4.901l0.373-0.565
		C237.685,235.153,236.317,228.473,231.353,225.196z"/>
	<path style="fill:#000003;" d="M206.559,313.374c-0.579-13.17,3.67-29.015,12.632-47.098c2.641-5.329,0.462-11.791-4.867-14.432
		c-5.328-2.642-11.791-0.461-14.432,4.868c-10.597,21.381-15.594,40.762-14.852,57.609c0.913,20.79,11.189,40.456,30.54,58.453
		c2.074,1.93,4.705,2.883,7.332,2.883c2.887,0,5.766-1.155,7.889-3.436c4.051-4.355,3.803-11.171-0.554-15.221
		C215.186,342.991,207.215,328.313,206.559,313.374z"/>
</g>
</svg>