<?xml version="1.0" encoding="iso-8859-1"?>
<!-- Uploaded to: SVG Repo, www.svgrepo.com, Generator: SVG Repo Mixer Tools -->
<svg height="800px" width="800px" version="1.1" id="Layer_1" xmlns="http://www.w3.org/2000/svg" xmlns:xlink="http://www.w3.org/1999/xlink" 
	 viewBox="0 0 512.002 512.002" xml:space="preserve">
<path style="fill:#A0815C;" d="M319.233,441.162c0,34.923-28.311,63.235-63.235,63.235s-63.235-28.311-63.235-63.235
	s28.311-212.431,63.235-212.431S319.233,406.239,319.233,441.162z"/>
<g>
	<path style="fill:#806749;" d="M231.414,441.163c0-28.183,18.438-149.224,43.91-194.895c-6.091-10.921-12.584-17.537-19.324-17.537
		c-34.923,0-63.235,177.508-63.235,212.431s28.311,63.235,63.235,63.235c6.741,0,13.232-1.065,19.324-3.019
		C249.854,493.21,231.414,469.344,231.414,441.163z"/>
	<path style="fill:#806749;" d="M261.192,331.563c13.922,0,27.701-0.493,41.322-1.464c-11.559-51.865-28.157-101.369-46.599-101.369
		c-18.353,0-34.878,49.02-46.43,100.607C225.837,330.731,243.142,331.563,261.192,331.563z"/>
</g>
<path style="fill:#FF3F62;" d="M456.695,236.843c-0.392-2.265-9.918-56.1-37.401-110.528C380.077,48.654,323.611,7.604,256,7.604
	S131.923,48.654,92.706,126.315c-27.485,54.428-37.01,108.262-37.402,110.528c-2.478,14.315,5.513,28.383,19.078,33.585
	c3.271,1.254,81.302,30.719,186.895,30.719c62.383,0,121.625-10.302,176.079-30.62C451.066,265.413,459.19,251.261,456.695,236.843z
	"/>
<path style="fill:#D80027;" d="M288.441,55.194c48.356,0,91.009,21.003,125.73,61.375C375.23,45.226,320.723,7.604,256,7.604
	c-67.611,0-124.077,41.049-163.294,118.711c-27.485,54.428-37.01,108.262-37.402,110.528c-2.478,14.315,5.513,28.383,19.078,33.585
	c0.8,0.306,6.082,2.302,15.134,5.141c3.849-17.783,14.361-59.543,35.631-101.665C164.364,96.243,220.83,55.194,288.441,55.194z"/>
<g>
	<circle style="fill:#FFFFFF;" cx="294.649" cy="190.069" r="69.683"/>
	<path style="fill:#FFFFFF;" d="M118.726,220.989c38.486,0,69.686-31.2,69.686-69.686c0-38.023-30.457-68.911-68.304-69.65
		c-9.879,13.193-19.034,28.092-27.402,44.663c-12.638,25.028-21.477,49.926-27.378,69.746
		C78.111,211.296,97.283,220.989,118.726,220.989z"/>
	<path style="fill:#FFFFFF;" d="M278.303,97.679c35.372,0,64.568-26.36,69.064-60.504C320.127,17.644,289.427,7.604,256,7.604
		c-16.004,0-31.381,2.303-46.055,6.845c-0.864,4.383-1.327,8.91-1.327,13.546C208.618,66.481,239.817,97.679,278.303,97.679z"/>
</g>
<g>
	<path style="fill:#FFA5B5;" d="M120.108,81.653c-9.879,13.194-19.034,28.092-27.402,44.663
		c-12.638,25.028-21.477,49.926-27.378,69.746c10.106,12.045,24.215,20.602,40.273,23.668c5.156-14.404,11.601-30.088,19.546-45.825
		c13.621-26.975,29.326-49.528,46.854-67.484C159.495,91.6,140.926,82.06,120.108,81.653z"/>
	<path style="fill:#FFA5B5;" d="M256,7.604c-16.004,0-31.381,2.303-46.055,6.845c-0.864,4.383-1.327,8.91-1.327,13.546
		c0,15.666,5.172,30.124,13.898,41.762c20.473-9.645,42.532-14.563,65.925-14.563c17.416,0,34.088,2.739,49.921,8.112
		c4.625-7.855,7.762-16.693,9.005-26.13C320.127,17.644,289.427,7.604,256,7.604z"/>
</g>
<g>
	<path style="fill:#D80027;" d="M414.17,249.171c-4.199,0-7.604-3.404-7.604-7.604c0-7.663-0.803-15.95-2.388-24.634
		c-0.754-4.131,1.984-8.092,6.116-8.846c4.127-0.749,8.091,1.984,8.846,6.115c1.748,9.582,2.635,18.789,2.635,27.364
		C421.774,245.766,418.37,249.171,414.17,249.171z"/>
	<path style="fill:#D80027;" d="M404.436,195.166c-3.2,0-6.177-2.036-7.226-5.243c-10.286-31.449-25.536-56.455-25.688-56.704
		c-2.197-3.577-1.079-8.26,2.497-10.458c3.578-2.199,8.259-1.083,10.457,2.493c0.661,1.076,16.32,26.712,27.188,59.943
		c1.306,3.992-0.872,8.285-4.863,9.591C406.017,195.045,405.22,195.166,404.436,195.166z"/>
</g>
<path style="fill:#806749;" d="M271.366,477.765c-2.721,0-5.352-1.465-6.72-4.034c-1.972-3.708-0.566-8.313,3.143-10.285
	c8.281-4.405,13.426-12.945,13.426-22.285c0-4.318-0.718-12.761-1.968-23.165c-0.502-4.169,2.472-7.957,6.642-8.458
	c4.165-0.518,7.956,2.472,8.458,6.642c1.339,11.139,2.077,20.012,2.077,24.981c0,14.976-8.236,28.661-21.492,35.711
	C273.793,477.478,272.57,477.765,271.366,477.765z"/>
<path d="M149.612,282.5c-6.135-1.192-12.299-2.488-18.32-3.853c-4.097-0.931-8.169,1.64-9.096,5.735
	c-0.929,4.096,1.64,8.169,5.735,9.096c6.174,1.399,12.493,2.727,18.78,3.95c0.49,0.095,7.226,2.18,8.915-6.014
	C156.474,287.302,153.735,283.301,149.612,282.5z"/>
<path d="M464.187,235.545c-0.4-2.311-10.116-57.227-38.106-112.658C385.484,42.494,326.672,0,256,0S126.515,42.494,85.919,122.887
	c-12.823,25.395-21.809,50.679-27.823,70.85c-0.041,0.126-0.079,0.251-0.113,0.379c-7.031,23.653-9.955,40.184-10.171,41.43
	c-3.088,17.843,6.941,35.498,23.846,41.981c0.095,0.036,9.997,3.785,27.763,8.759c4.048,1.134,8.241-1.23,9.372-5.273
	c1.132-4.044-1.229-8.241-5.273-9.372c-16.822-4.708-26.324-8.277-26.414-8.312c-10.144-3.89-16.161-14.483-14.308-25.188
	c0.167-0.967,2.037-11.539,6.325-27.58c13.808,11.577,31.285,18.034,49.605,18.034c42.618,0,77.289-34.671,77.289-77.289
	c0-20.377-7.862-39.602-22.139-54.136c-10.84-11.035-24.452-18.415-39.289-21.497c19.675-23.322,41.984-40.085,66.482-49.96
	c-0.022,0.761-0.056,1.523-0.056,2.282c0,42.618,34.672,77.29,77.289,77.29c34.334,0,64.148-22.799,73.897-54.73
	c23.032,19.014,43.311,45.537,60.305,79.189c26.979,53.427,36.312,106.178,36.697,108.397c1.871,10.805-4.229,21.43-14.503,25.263
	c-53.602,19.999-111.95,30.14-173.422,30.14c-26.783,0-54.465-2.04-82.275-6.062c-4.161-0.608-8.013,2.28-8.615,6.438
	c-0.601,4.156,2.281,8.013,6.437,8.614c10.191,1.474,20.365,2.677,30.492,3.63c-9.303,36.108-16.072,76.14-19.425,102.836
	c-0.524,4.166,2.429,7.968,6.596,8.492c0.322,0.041,0.641,0.061,0.957,0.061c3.777,0,7.052-2.811,7.535-6.657
	c3.374-26.858,10.261-67.442,19.727-103.492c12.996,0.884,25.882,1.35,38.57,1.35c9.467,0,18.863-0.239,28.184-0.707
	c13.795,52.783,22.169,115.402,22.169,133.118c0,30.674-24.956,55.63-55.631,55.63s-55.631-24.955-55.631-55.63
	c0-4.2-3.405-7.604-7.604-7.604s-7.604,3.404-7.604,7.604c0,39.06,31.778,70.837,70.838,70.837s70.839-31.777,70.839-70.838
	c0-20.387-8.651-82.271-21.927-134.115c47.374-3.724,92.661-13.561,135.103-29.397C457.139,271.263,467.304,253.555,464.187,235.545
	z M180.808,151.304c0,34.232-27.85,62.081-62.081,62.081c-17.048,0-33.186-6.968-44.887-19.229
	c5.765-18.728,14.087-41.506,25.654-64.414c7.483-14.821,15.607-28.252,24.319-40.277
	C155.575,92.083,180.808,119.042,180.808,151.304z M278.303,90.077c-34.232,0-62.081-27.85-62.081-62.082
	c0-2.516,0.173-5.045,0.482-7.561c12.601-3.465,25.717-5.225,39.296-5.225c30.157,0,58.037,8.647,83.045,25.5
	C333.121,69.151,307.787,90.077,278.303,90.077z"/>
<path d="M294.647,267.359c-42.618,0-77.289-34.671-77.289-77.289s34.672-77.289,77.289-77.289c42.618,0,77.29,34.671,77.29,77.289
	S337.265,267.359,294.647,267.359z M294.647,127.989c-34.232,0-62.081,27.85-62.081,62.081s27.85,62.081,62.081,62.081
	c34.232,0,62.082-27.85,62.082-62.081S328.879,127.989,294.647,127.989z"/>
</svg>