<?xml version="1.0" encoding="iso-8859-1"?>
<!-- Uploaded to: SVG Repo, www.svgrepo.com, Generator: SVG Repo Mixer Tools -->
<svg height="800px" width="800px" version="1.1" id="Layer_1" xmlns="http://www.w3.org/2000/svg" xmlns:xlink="http://www.w3.org/1999/xlink" 
	 viewBox="0 0 512 512" xml:space="preserve">
<circle style="fill:#F4B2B0;" cx="255.995" cy="260.392" r="65.102"/>
<path style="fill:#F4B2B0;" d="M255.999,15.318L255.999,15.318c-50.254,0-88.289,45.433-79.449,94.903l21.219,118.743l1.651-0.771
	c11.205-19.653,32.336-32.912,56.577-32.912s45.372,13.259,56.577,32.912l1.651,0.771l21.219-118.743
	C344.288,60.751,306.253,15.318,255.999,15.318z"/>
<g>
	<path style="fill:#B3404A;" d="M494.163,333.975c-7.337-27.539-26.356-50.245-52.181-62.296l-110.601-51.614l19.146-107.148
		c5.014-28.053-2.603-56.677-20.897-78.531S284.498,0,255.999,0C227.5,0,200.663,12.533,182.37,34.386
		c-18.294,21.853-25.911,50.476-20.898,78.531l19.148,107.148L70.018,271.68c-25.825,12.052-44.844,34.758-52.181,62.297
		c-7.336,27.539-2.134,56.698,14.272,80.002c16.407,23.302,42.105,38.03,70.504,40.408c2.701,0.227,5.393,0.339,8.077,0.339
		c25.535,0,50.018-10.136,68.164-28.461l85.014-85.849c40.662-3.969,72.549-38.343,72.549-80.029c0-1.412-0.038-2.815-0.11-4.211
		l92.717,43.269c17.585,8.206,30.537,23.668,35.532,42.42c4.997,18.752,1.454,38.609-9.719,54.477
		c-11.171,15.868-28.671,25.897-48.011,27.516c-19.327,1.622-38.263-5.361-51.918-19.149c-5.953-6.014-15.654-6.058-21.663-0.106
		c-6.012,5.953-6.058,15.652-0.106,21.663c18.147,18.325,42.626,28.461,68.164,28.461c2.682,0,5.38-0.112,8.077-0.339
		c28.4-2.377,54.097-17.106,70.504-40.408C496.297,390.673,501.499,361.514,494.163,333.975z M205.86,54.051
		c12.458-14.881,30.733-23.415,50.139-23.415s37.682,8.535,50.138,23.415c12.458,14.88,17.645,34.372,14.23,53.475l-15.86,88.76
		c-0.031-0.023-0.063-0.044-0.093-0.067c-0.593-0.449-1.199-0.878-1.804-1.308c-0.311-0.222-0.619-0.447-0.933-0.663
		c-0.709-0.492-1.429-0.965-2.154-1.435c-0.188-0.121-0.377-0.244-0.567-0.363c-0.823-0.521-1.653-1.029-2.494-1.521
		c-0.018-0.011-0.037-0.021-0.055-0.032c-8.157-4.762-17.219-8.126-26.866-9.77c-0.17-0.029-0.339-0.063-0.51-0.092
		c-0.754-0.124-1.515-0.228-2.275-0.331c-0.509-0.069-1.019-0.136-1.53-0.195c-0.627-0.072-1.253-0.138-1.884-0.196
		c-0.715-0.066-1.434-0.118-2.152-0.164c-0.486-0.031-0.97-0.069-1.458-0.09c-1.239-0.058-2.483-0.095-3.731-0.095
		c-1.248,0-2.491,0.037-3.731,0.095c-0.489,0.023-0.974,0.06-1.46,0.09c-0.718,0.047-1.434,0.098-2.149,0.164
		c-0.633,0.057-1.262,0.124-1.892,0.196c-0.505,0.06-1.008,0.124-1.512,0.193c-0.769,0.103-1.536,0.21-2.299,0.335
		c-0.152,0.026-0.302,0.055-0.453,0.081c-9.666,1.641-18.746,5.011-26.918,9.782c-0.015,0.008-0.029,0.017-0.044,0.026
		c-0.841,0.492-1.673,0.999-2.494,1.52c-0.193,0.123-0.386,0.247-0.579,0.371c-0.718,0.464-1.432,0.934-2.135,1.422
		c-0.334,0.23-0.66,0.47-0.991,0.705c-0.584,0.417-1.17,0.83-1.742,1.262c-0.035,0.028-0.074,0.052-0.11,0.08l-15.86-88.76
		C188.217,88.423,193.404,68.931,205.86,54.051z M157.087,404.705c-13.656,13.788-32.578,20.768-51.917,19.151
		c-19.339-1.619-36.838-11.648-48.01-27.516s-14.715-35.725-9.719-54.477s17.947-34.214,35.533-42.42l92.717-43.269
		c-0.072,1.395-0.11,2.799-0.11,4.211c0,33.778,20.943,62.738,50.517,74.631L157.087,404.705z M256.973,310.142
		c-0.032,0-0.063-0.002-0.095-0.002l-0.879,0.026c-27.45,0-49.784-22.332-49.784-49.784c0-9.137,2.486-17.702,6.8-25.07
		c0.361-0.619,0.737-1.225,1.123-1.824c0.162-0.251,0.319-0.507,0.486-0.755c0.519-0.775,1.06-1.533,1.619-2.273
		c0.193-0.256,0.395-0.502,0.593-0.754c0.418-0.532,0.844-1.055,1.282-1.569c0.224-0.262,0.447-0.522,0.676-0.78
		c0.561-0.63,1.134-1.247,1.723-1.846c0.083-0.084,0.161-0.173,0.244-0.256c0.708-0.709,1.438-1.391,2.186-2.054
		c0.135-0.121,0.274-0.237,0.411-0.357c0.691-0.599,1.394-1.183,2.114-1.742c0.072-0.057,0.144-0.115,0.216-0.17
		c6.803-5.222,14.898-8.656,23.504-9.854c0.165-0.023,0.331-0.041,0.495-0.063c0.838-0.109,1.68-0.191,2.527-0.256
		c0.242-0.018,0.483-0.041,0.726-0.055c1.016-0.063,2.034-0.103,3.061-0.103c1.026,0,2.045,0.04,3.061,0.103
		c0.242,0.015,0.484,0.037,0.726,0.055c0.847,0.064,1.69,0.147,2.527,0.256c0.165,0.021,0.331,0.04,0.495,0.063
		c8.609,1.198,16.707,4.634,23.512,9.86c0.066,0.051,0.13,0.103,0.195,0.153c0.731,0.567,1.443,1.157,2.141,1.765
		c0.13,0.113,0.262,0.224,0.391,0.339c0.751,0.666,1.487,1.354,2.198,2.066c0.072,0.072,0.139,0.149,0.211,0.222
		c0.604,0.611,1.187,1.242,1.76,1.886c0.221,0.248,0.438,0.501,0.654,0.755c0.447,0.525,0.884,1.062,1.311,1.605
		c0.188,0.24,0.383,0.476,0.567,0.72c0.564,0.748,1.109,1.512,1.633,2.293c0.159,0.237,0.308,0.481,0.463,0.72
		c0.395,0.614,0.781,1.236,1.15,1.87c4.307,7.365,6.789,15.922,6.789,25.051C305.783,287.508,283.975,309.619,256.973,310.142z"/>
	<path style="fill:#B3404A;" d="M485.422,279.242c-8.359,0-15.194-6.717-15.312-15.102c-1.006-71.535-37.489-137.561-97.59-176.619
		c-7.094-4.609-9.107-14.097-4.497-21.191c4.609-7.091,14.096-9.11,21.191-4.497c68.685,44.637,110.379,120.104,111.529,201.877
		c0.119,8.459-6.642,15.413-15.101,15.533C485.568,279.241,485.494,279.242,485.422,279.242z"/>
	<path style="fill:#B3404A;" d="M26.578,279.242c-0.074,0-0.146,0-0.221-0.002c-8.459-0.119-15.22-7.072-15.101-15.533
		c1.15-81.772,42.843-157.24,111.528-201.875c7.095-4.609,16.582-2.595,21.191,4.497c4.611,7.094,2.596,16.582-4.497,21.191
		c-60.1,39.056-96.582,105.082-97.588,176.619C41.772,272.525,34.935,279.242,26.578,279.242z"/>
	<path style="fill:#B3404A;" d="M255.999,512c-35.841,0-70.405-7.59-102.732-22.557c-7.677-3.555-11.018-12.66-7.464-20.336
		c3.554-7.679,12.657-11.017,20.336-7.464c28.265,13.086,58.497,19.722,89.86,19.722c31.362,0,61.595-6.636,89.862-19.724
		c7.676-3.551,16.782-0.211,20.335,7.464c3.554,7.677,0.213,16.782-7.465,20.336C326.404,504.411,291.84,512,255.999,512z"/>
</g>
</svg>