<?xml version="1.0" encoding="iso-8859-1"?>
<!-- Uploaded to: SVG Repo, www.svgrepo.com, Generator: SVG Repo Mixer Tools -->
<svg height="800px" width="800px" version="1.1" id="Layer_1" xmlns="http://www.w3.org/2000/svg" xmlns:xlink="http://www.w3.org/1999/xlink" 
	 viewBox="0 0 504.446 504.446" xml:space="preserve">
<g transform="translate(1 1)">
	<path style="fill:#FD9808;" d="M431.684,212.193l-51.2-55.397c-30.216-31.895-52.879-67.987-67.148-109.954
		c-8.393-23.502-31.056-38.61-55.397-38.61h-6.715h-5.875c-25.18,0-47.003,15.948-56.236,40.289
		c-15.108,40.289-37.77,77.22-67.148,109.115l-51.2,55.397C2.779,283.538-4.775,385.938,66.569,448.049
		c19.305,16.787,28.538,24.341,38.61,31.895c33.574,23.502,62.951,20.144,95.685-0.839c8.393,8.393,31.895,16.787,50.361,16.787
		c16.787,0,41.967-8.393,50.361-16.787c32.734,20.984,62.111,24.341,95.685,0.839c10.911-7.554,19.305-14.269,38.61-31.895
		C507.225,384.259,499.671,282.698,431.684,212.193"/>
	<path style="fill:#FFDD09;" d="M409.861,212.193l-47.843-55.397c-27.698-31.895-48.682-67.987-62.951-109.954
		c-7.554-23.502-28.538-38.61-52.039-38.61h-4.197h-5.875c-23.502,0-43.646,15.948-52.039,40.289
		c-13.43,40.289-34.413,77.22-62.111,109.115l-47.843,54.557C12.012,282.698,4.457,385.098,70.766,447.21
		c18.466,16.787,26.02,24.341,36.092,31.895c31.056,23.502,57.915,20.144,88.97-0.839c8.393,8.393,29.377,16.787,47.003,16.787
		c15.948,0,38.61-8.393,47.003-16.787c30.216,20.984,57.915,24.341,88.971,0.839c10.072-7.554,17.626-14.269,36.092-31.895
		C480.366,384.259,473.651,282.698,409.861,212.193"/>
	<path style="fill:#FFFFFF;" d="M70.766,212.193l51.2-55.397c30.216-31.895,52.879-67.987,67.987-109.954
		c8.393-23.502,31.056-38.61,55.397-38.61h5.875h3.357c-23.502,0-43.646,15.108-52.039,38.61
		c-13.43,41.967-35.252,78.059-62.951,109.954l-47.843,55.397c-62.951,70.505-70.505,172.905-4.197,235.016
		c18.466,16.787,26.02,24.341,36.092,31.895c11.751,9.233,23.502,14.269,35.252,15.948c-17.626,2.518-35.252-2.518-53.718-15.948
		c-10.911-7.554-19.305-14.269-38.61-31.895C-4.775,384.259,2.779,282.698,70.766,212.193"/>
	<path d="M151.343,503.446c-16.787,0-33.574-5.875-50.361-17.626c-11.751-8.393-20.984-16.787-40.289-32.734
		c-32.734-28.538-51.2-66.308-52.879-108.275C6.136,296.128,26.28,245.767,64.89,206.318l51.2-55.397
		c28.538-31.056,50.361-66.308,64.629-105.757C190.792,17.466,216.812-1,245.349-1H257.1c28.538,0,54.557,17.626,63.79,44.485
		c14.269,39.449,35.252,73.862,65.469,107.436l51.2,55.397c37.77,39.449,58.754,89.81,57.075,138.492
		c-1.679,41.967-20.144,79.738-52.879,108.275c-18.466,15.948-28.538,24.341-39.449,31.895
		c-31.895,22.662-63.79,23.502-99.882,2.518c-12.59,8.393-35.252,15.108-51.2,15.108c-16.787,0-38.61-6.715-51.2-15.108
		C183.238,498.41,166.451,503.446,151.343,503.446z M200.864,469.033c1.679,0,4.197,0.839,5.875,2.518
		c7.554,6.715,28.538,14.269,44.485,14.269c15.108,0,37.77-8.393,44.485-14.269c2.518-2.518,6.715-3.357,10.072-0.839
		c32.734,20.144,57.915,20.984,86.452,0.839c10.911-7.554,19.305-14.269,38.61-31.056c29.377-25.18,45.325-58.754,47.003-96.525
		c1.679-43.646-16.787-89.81-52.039-125.902l0,0l-51.2-55.397c-31.895-34.413-54.557-71.344-69.666-112.472
		c-6.715-20.144-26.02-33.574-47.843-33.574h-11.751c-21.823,0-40.289,13.43-48.682,34.413
		c-15.108,41.967-38.61,78.898-68.826,111.633l-51.2,55.397c-35.252,36.092-54.557,82.256-52.039,125.902
		c1.679,37.77,17.626,71.344,47.003,96.525c19.305,16.787,27.698,23.502,38.61,31.056c27.698,19.305,53.718,19.305,86.452-0.839
		C197.507,469.872,199.185,469.033,200.864,469.033z"/>
	<path d="M176.523,498.41c-0.839,0-1.679,0-3.357-0.839c-7.554-3.357-15.108-6.715-22.662-12.59
		c-10.911-7.554-20.984-15.948-39.449-31.895c-3.357-3.357-4.197-8.393-0.839-11.751c3.357-3.357,8.393-4.197,11.751-0.839
		c19.305,16.787,27.698,23.502,38.61,31.056c6.715,4.197,12.59,7.554,19.305,10.072c4.197,1.679,6.715,6.715,5.036,10.911
		C183.238,495.892,179.88,498.41,176.523,498.41z"/>
	<path d="M91.749,427.066c-2.518,0-5.036-1.679-6.715-3.357c-44.485-63.79-31.895-153.6,30.216-217.39
		c3.357-3.357,8.393-3.357,11.751,0s3.357,8.393,0,11.751C70.766,276.823,58.176,357.4,98.464,414.475
		c2.518,4.197,1.679,9.233-2.518,11.751C95.107,427.066,93.428,427.066,91.749,427.066z"/>
	<path d="M158.897,179.459c-1.679,0-4.197-0.839-5.875-2.518c-3.357-3.357-3.357-8.393-0.839-11.751l13.43-15.108
		c3.357-4.197,7.554-8.393,10.911-12.59c2.518-3.357,8.393-4.197,11.751-1.679s4.197,8.393,1.679,11.751
		c-4.197,5.036-7.554,9.233-11.751,14.269l-13.43,15.108C163.094,178.62,161.415,179.459,158.897,179.459z"/>
	<path d="M202.543,124.902c-1.679,0-3.357-0.839-4.197-1.679c-4.197-2.518-5.036-7.554-2.518-11.751
		c7.554-11.751,12.59-17.626,15.948-22.662c6.715-9.233,8.393-11.751,15.108-33.574c0.839-4.197,5.875-6.715,10.072-5.875
		c4.197,0.839,6.715,5.875,5.875,10.072c-6.715,24.341-9.233,28.538-17.626,39.449c-3.357,4.197-8.393,10.911-15.108,21.823
		C208.418,124.062,205.9,124.902,202.543,124.902z"/>
	<path d="M162.254,427.066c-3.357,0-6.715-1.679-7.554-5.036c-10.072-23.502-14.269-47.843-12.59-71.344
		c0-4.197,4.197-8.393,9.233-7.554c5.036,0,8.393,4.197,7.554,9.233c-1.679,20.984,1.679,41.967,10.911,62.951
		c1.679,4.197,0,9.233-4.197,10.911C164.772,427.066,163.933,427.066,162.254,427.066z"/>
	<path d="M158.057,326.344c-0.839,0-1.679,0-3.357-0.839c-4.197-1.679-6.715-6.715-5.036-10.911
		c7.554-19.305,19.305-37.77,36.092-53.718c9.233-8.393,16.787-17.626,24.341-28.538c4.197-6.715,8.393-13.43,12.59-20.144
		c6.715-12.59,12.59-26.02,17.626-41.128c1.679-4.197,6.715-6.715,10.911-5.036c4.197,1.679,6.715,6.715,5.036,10.911
		c-5.875,15.948-11.751,30.216-19.305,42.807c-4.197,7.554-8.393,15.108-13.43,21.823c-7.554,10.911-16.787,20.984-26.02,30.216
		c-15.108,14.269-25.18,30.216-31.895,47.003C164.772,324.666,161.415,326.344,158.057,326.344z"/>
	<path d="M325.926,498.41c-3.357,0-6.715-1.679-7.554-5.036c-1.679-4.197,0.839-9.233,5.036-10.911
		c6.715-2.518,12.59-5.875,19.305-10.072c6.715-5.036,12.59-9.233,20.984-16.787c3.357-3.357,9.233-2.518,11.751,0.839
		c3.357,3.357,2.518,9.233-0.839,11.751c-9.233,7.554-15.108,12.59-22.662,17.626s-15.108,9.233-22.662,12.59
		C327.605,498.41,326.766,498.41,325.926,498.41z"/>
	<path d="M388.877,452.246c-2.518,0-4.197-0.839-5.875-2.518c-3.357-3.357-2.518-8.393,0.839-11.751
		c5.036-4.197,9.233-8.393,13.43-13.43c3.357-3.357,8.393-4.197,11.751-0.839s4.197,8.393,0.839,11.751
		c-4.197,5.036-9.233,10.072-14.269,15.108C392.234,452.246,390.556,452.246,388.877,452.246z"/>
	<path d="M419.094,413.636c-1.679,0-2.518,0-4.197-0.839c-4.197-2.518-5.036-7.554-3.357-10.911
		c26.02-47.843,19.305-108.275-15.948-159.475c-2.518-4.197-1.679-9.233,1.679-11.751c4.197-2.518,9.233-1.679,11.751,1.679
		c39.449,56.236,46.164,123.384,17.626,177.102C424.969,411.957,422.451,413.636,419.094,413.636z"/>
	<path d="M381.323,220.587c-2.518,0-4.197-0.839-5.875-2.518l-20.984-22.662c-3.357-3.357-2.518-8.393,0.839-11.751
		c3.357-3.357,8.393-2.518,11.751,0.839l20.984,22.662c3.357,3.357,2.518,8.393-0.839,11.751
		C385.52,219.748,383.002,220.587,381.323,220.587z"/>
	<path d="M301.585,485.82c-2.518,0-5.036-0.839-6.715-3.357c-3.357-3.357-2.518-9.233,0.839-11.751
		c12.59-10.072,23.502-22.662,31.895-37.77c2.518-4.197,7.554-5.036,11.751-2.518s5.036,7.554,2.518,11.751
		c-9.233,15.948-21.823,30.216-35.252,41.967C305.782,485.82,303.264,485.82,301.585,485.82z"/>
	<path d="M351.946,410.279c-0.839,0-1.679,0-2.518,0c-4.197-1.679-6.715-5.875-5.036-10.911
		c10.911-34.413,10.911-71.344-0.839-104.079c-1.679-4.197,0.839-9.233,5.036-10.911c4.197-1.679,9.233,0.839,10.911,5.036
		c12.59,36.092,13.43,76.38,0.839,114.151C358.661,408.6,355.303,410.279,351.946,410.279z"/>
	<path d="M335.998,267.59c-3.357,0-5.875-1.679-7.554-5.036c-9.233-19.305-17.626-39.449-26.02-59.593
		c-1.679-4.197,0-9.233,5.036-10.911c4.197-1.679,9.233,0,10.911,5.036c7.554,20.144,15.948,39.449,25.18,57.915
		c1.679,4.197,0,9.233-4.197,10.911C338.517,267.59,336.838,267.59,335.998,267.59z"/>
</g>
</svg>