<?xml version="1.0" encoding="iso-8859-1"?>
<!-- Uploaded to: SVG Repo, www.svgrepo.com, Generator: SVG Repo Mixer Tools -->
<svg height="800px" width="800px" version="1.1" id="Layer_1" xmlns="http://www.w3.org/2000/svg" xmlns:xlink="http://www.w3.org/1999/xlink" 
	 viewBox="0 0 512 512" xml:space="preserve">
<g transform="translate(1 1)">
	<path style="fill:#FDCC00;" d="M340.333,451.267c0-28.16-23.04-51.2-51.2-51.2h-179.2c-23.893,0-42.667-18.773-42.667-42.667
		c0-46.933,38.4-85.333,85.333-85.333h8.533l18.773-34.133H152.6c-65.707,0-119.467,53.76-119.467,119.467
		c0,42.667,34.133,76.8,76.8,76.8h179.2c9.387,0,17.067,7.68,17.067,17.067c0,28.16,23.04,51.2,51.2,51.2h145.067v-34.133H357.4
		C348.013,468.333,340.333,460.653,340.333,451.267"/>
	<g>
		<path style="fill:#FFE100;" d="M118.467,109.933h-102.4c-5.12,0-8.533-3.413-8.533-8.533c0-5.12,3.413-8.533,8.533-8.533h102.4
			c5.12,0,8.533,3.413,8.533,8.533C127,106.52,123.587,109.933,118.467,109.933z"/>
		<path style="fill:#FFE100;" d="M267.8,109.933h-55.467c-5.12,0-8.533-3.413-8.533-8.533c0-5.12,3.413-8.533,8.533-8.533H267.8
			c5.12,0,8.533,3.413,8.533,8.533C276.333,106.52,272.92,109.933,267.8,109.933z"/>
		<path style="fill:#FFE100;" d="M67.267,109.933c-2.56,0-5.12-0.853-6.827-3.413C53.613,97.987,50.2,86.893,50.2,75.8
			c0-28.16,23.04-51.2,51.2-51.2c11.947,0,22.187,3.413,31.573,10.24c8.533-16.213,25.6-27.307,45.227-27.307
			c23.893,0,43.52,16.213,49.493,37.547c5.973-2.56,11.947-3.413,18.773-3.413c18.773,0,35.84,10.24,45.227,26.453
			c1.707,2.56,1.707,5.973,0,8.533l-15.36,29.013c-2.56,4.267-7.68,5.973-11.947,3.413c-4.267-2.56-5.973-7.68-3.413-11.947
			l13.653-24.747c-6.827-8.533-17.067-13.653-28.16-13.653c-7.68,0-14.507,2.56-20.48,6.827c-2.56,1.707-5.973,2.56-8.533,0.853
			c-3.413-1.707-5.12-4.267-5.12-7.68c0-18.773-15.36-34.133-34.133-34.133c-16.213,0-30.72,11.947-33.28,28.16
			c-0.853,3.413-3.413,5.973-6.827,6.827s-6.827-0.853-8.533-3.413c-6.827-9.387-17.067-14.507-28.16-14.507
			c-18.773,0-34.133,15.36-34.133,34.133c0,7.68,2.56,14.507,6.827,20.48c2.56,3.413,1.707,9.387-1.707,11.947
			C70.68,109.08,68.973,109.933,67.267,109.933z"/>
		<path style="fill:#FFE100;" d="M451.267,340.333c-28.16,0-51.2-23.04-51.2-51.2c0-22.187,14.507-40.96,34.133-47.787L306.2,7.533
			l-196.267,358.4h392.533L482.84,329.24C474.307,336.067,463.213,340.333,451.267,340.333"/>
		<path style="fill:#FFE100;" d="M280.6,212.333l25.6,51.2l25.6-51.2l82.773,40.96c5.12-5.973,11.947-10.24,19.627-12.8l-128-232.96
			L161.133,272.067L280.6,212.333z"/>
	</g>
	<polygon style="fill:#FDCC00;" points="306.2,178.2 331.8,127 406.893,191 391.533,163.693 306.2,7.533 220.867,163.693 
		205.507,191 280.6,127 	"/>
	<path style="fill:#00DA6C;" d="M502.467,289.133c0,28.16-23.04,51.2-51.2,51.2s-51.2-23.04-51.2-51.2c0-28.16,23.04-51.2,51.2-51.2
		S502.467,260.973,502.467,289.133"/>
	<path style="fill:#00AD55;" d="M451.267,237.933c-2.56,0-5.973,0-8.533,0.853c23.893,4.267,42.667,24.747,42.667,50.347
		c0,25.6-18.773,46.08-42.667,50.347c2.56,0.853,5.973,0.853,8.533,0.853c28.16,0,51.2-23.04,51.2-51.2
		C502.467,260.973,479.427,237.933,451.267,237.933"/>
	<path style="fill:#00DA6C;" d="M101.4,178.2c0,23.893-18.773,42.667-42.667,42.667S16.067,202.093,16.067,178.2
		s18.773-42.667,42.667-42.667S101.4,154.307,101.4,178.2"/>
	<path style="fill:#FFFFFF;" d="M33.133,178.2c0-20.48,14.507-37.547,34.133-41.813c-2.56-0.853-5.973-0.853-8.533-0.853
		c-23.893,0-42.667,18.773-42.667,42.667s18.773,42.667,42.667,42.667c2.56,0,5.973,0,8.533-0.853
		C47.64,215.747,33.133,198.68,33.133,178.2"/>
	<path d="M451.267,434.2c-5.12,0-8.533-3.413-8.533-8.533v-85.333c0-5.12,3.413-8.533,8.533-8.533s8.533,3.413,8.533,8.533v85.333
		C459.8,430.787,456.387,434.2,451.267,434.2z"/>
	<path d="M451.267,348.867c-33.28,0-59.733-26.453-59.733-59.733s26.453-59.733,59.733-59.733S511,255.853,511,289.133
		S484.547,348.867,451.267,348.867z M451.267,246.467c-23.893,0-42.667,18.773-42.667,42.667c0,23.893,18.773,42.667,42.667,42.667
		c23.893,0,42.667-18.773,42.667-42.667C493.933,265.24,475.16,246.467,451.267,246.467z"/>
	<path d="M58.733,289.133c-5.12,0-8.533-3.413-8.533-8.533v-59.733c0-5.12,3.413-8.533,8.533-8.533s8.533,3.413,8.533,8.533V280.6
		C67.267,285.72,63.853,289.133,58.733,289.133z"/>
	<path d="M58.733,229.4c-28.16,0-51.2-23.04-51.2-51.2s23.04-51.2,51.2-51.2s51.2,23.04,51.2,51.2S86.893,229.4,58.733,229.4z
		 M58.733,144.067c-18.773,0-34.133,15.36-34.133,34.133s15.36,34.133,34.133,34.133s34.133-15.36,34.133-34.133
		S77.507,144.067,58.733,144.067z"/>
	<path d="M109.933,101.4H7.533C2.413,101.4-1,97.987-1,92.867s3.413-8.533,8.533-8.533h102.4c5.12,0,8.533,3.413,8.533,8.533
		S115.053,101.4,109.933,101.4z"/>
	<path d="M259.267,101.4H203.8c-5.12,0-8.533-3.413-8.533-8.533s3.413-8.533,8.533-8.533h55.467c5.12,0,8.533,3.413,8.533,8.533
		S264.387,101.4,259.267,101.4z"/>
	<path d="M58.733,101.4c-2.56,0-5.12-0.853-6.827-3.413c-6.827-8.533-10.24-19.627-10.24-30.72c0-28.16,23.04-51.2,51.2-51.2
		c11.947,0,22.187,3.413,31.573,10.24C132.973,10.093,150.04-1,169.667-1c23.893,0,43.52,16.213,49.493,37.547
		c5.973-2.56,11.947-3.413,18.773-3.413c18.773,0,35.84,10.24,45.227,26.453c1.707,2.56,1.707,5.973,0,8.533L267.8,97.133
		c-2.56,4.267-7.68,5.973-11.947,3.413c-4.267-2.56-5.973-7.68-3.413-11.947l13.653-24.747c-6.827-8.533-17.067-13.653-28.16-13.653
		c-7.68,0-14.507,2.56-20.48,6.827c-2.56,1.707-5.973,2.56-8.533,0.853c-3.413-1.707-5.12-4.267-5.12-7.68
		c0-18.773-15.36-34.133-34.133-34.133c-16.213,0-30.72,11.947-33.28,28.16c-0.853,3.413-3.413,5.973-6.827,6.827
		c-3.413,0.853-6.827-0.853-8.533-3.413c-6.827-9.387-17.067-14.507-28.16-14.507c-18.773,0-34.133,15.36-34.133,34.133
		c0,7.68,2.56,14.507,6.827,20.48c2.56,3.413,1.707,9.387-1.707,11.947C62.147,100.547,60.44,101.4,58.733,101.4z"/>
	<path d="M502.467,374.467L502.467,374.467H109.933c-3.413,0-5.973-1.707-7.68-4.267s-1.707-5.973,0-8.533L298.52,3.267
		c3.413-5.12,11.947-5.12,15.36,0l128,233.813c0.853,2.56,1.707,5.12,0.853,6.827c-0.853,2.56-2.56,4.267-5.12,5.12
		C419.693,255,408.6,271.213,408.6,289.133c0,23.893,18.773,42.667,42.667,42.667c9.387,0,18.773-3.413,26.453-8.533
		c1.707-1.707,4.267-2.56,6.827-1.707c2.56,0.853,4.267,1.707,5.973,4.267l18.773,34.987c0.853,1.707,1.707,3.413,1.707,5.12
		C511,371.053,507.587,374.467,502.467,374.467z M124.44,357.4h363.52l-8.533-15.36c-8.533,4.267-17.92,6.827-28.16,6.827
		c-33.28,0-59.733-26.453-59.733-59.733c0-22.187,11.947-41.813,30.72-52.053L306.2,25.453L124.44,357.4z"/>
	<path d="M502.467,511H357.4c-33.28,0-59.733-26.453-59.733-59.733c0-5.12-3.413-8.533-8.533-8.533h-179.2
		C63,442.733,24.6,404.333,24.6,357.4c0-70.827,57.173-128,128-128h27.307c3.413,0,5.973,1.707,7.68,4.267
		c1.707,2.56,1.707,5.973,0,8.533l-18.773,34.133c-1.707,2.56-4.267,4.267-7.68,4.267H152.6c-42.667,0-76.8,34.133-76.8,76.8
		c0,18.773,15.36,34.133,34.133,34.133h179.2c33.28,0,59.733,26.453,59.733,59.733c0,5.12,3.413,8.533,8.533,8.533h145.067
		c5.12,0,8.533,3.413,8.533,8.533v34.133C511,507.587,507.587,511,502.467,511z M152.6,246.467
		c-61.44,0-110.933,49.493-110.933,110.933c0,37.547,30.72,68.267,68.267,68.267h179.2c14.507,0,25.6,11.093,25.6,25.6
		c0,23.893,18.773,42.667,42.667,42.667h136.533v-17.067H357.4c-14.507,0-25.6-11.093-25.6-25.6
		c0-23.893-18.773-42.667-42.667-42.667h-179.2c-28.16,0-51.2-23.04-51.2-51.2c0-52.053,41.813-93.867,93.867-93.867h3.413
		l9.387-17.067H152.6z"/>
	<path d="M406.893,199.533L406.893,199.533c-2.56,0-4.267-0.853-5.973-1.707l-66.56-57.173l-20.48,41.813
		c-2.56,5.973-11.947,5.973-15.36,0l-20.48-41.813l-66.56,57.173c-3.413,2.56-7.68,2.56-11.093,0
		c-3.413-2.56-4.267-6.827-1.707-11.093L298.52,3.267c3.413-5.12,11.947-5.12,15.36,0l99.84,182.613
		c0.853,1.707,1.707,3.413,1.707,5.12C415.427,196.12,412.013,199.533,406.893,199.533z M280.6,118.467c0.853,0,0.853,0,1.707,0
		c2.56,0.853,5.12,2.56,5.973,4.267l17.92,35.84l17.92-35.84c0.853-2.56,3.413-4.267,5.973-4.267c2.56-0.853,5.12,0,6.827,1.707
		l39.253,34.133L306.2,25.453l-70.827,128.853l39.253-34.133C276.333,119.32,278.893,118.467,280.6,118.467z"/>
	<path d="M161.133,280.6c-2.56,0-4.267-0.853-5.973-2.56c-2.56-2.56-3.413-6.827-1.707-10.24L298.52,3.267
		c3.413-5.12,11.947-5.12,15.36,0l128,233.813c0.853,2.56,1.707,5.12,0.853,6.827c-0.853,2.56-2.56,4.267-5.12,5.12
		c-5.973,2.56-11.947,5.973-16.213,10.24c-2.56,2.56-6.827,3.413-10.24,1.707l-75.093-37.547l-22.187,43.52
		c-2.56,5.973-11.947,5.973-15.36,0l-22.187-43.52l-111.787,55.467C163.693,280.6,162.84,280.6,161.133,280.6z M306.2,25.453
		L181.613,252.44l94.72-47.787c1.707-0.853,4.267-0.853,6.827-0.853c2.56,0.853,4.267,2.56,5.12,4.267l17.92,35.84l17.92-35.84
		c0.853-1.707,2.56-3.413,5.12-4.267c2.56-0.853,4.267-0.853,6.827,0.853l77.653,38.4c2.56-2.56,5.973-4.267,9.387-5.973
		L306.2,25.453z"/>
</g>
</svg>