<?xml version="1.0" encoding="iso-8859-1"?>
<!-- Uploaded to: SVG Repo, www.svgrepo.com, Generator: SVG Repo Mixer Tools -->
<svg version="1.1" id="Layer_1" xmlns="http://www.w3.org/2000/svg" xmlns:xlink="http://www.w3.org/1999/xlink" 
	 viewBox="0 0 512 512" xml:space="preserve">
<path style="fill:#261D16;" d="M412.687,415.187c-54.76,0-99.311-44.552-99.311-99.311c0-54.761,44.552-99.313,99.311-99.313
	c54.761,0,99.313,44.552,99.313,99.313C512,370.635,467.448,415.187,412.687,415.187z M412.687,233.079
	c-45.654,0-82.795,37.141-82.795,82.796c0,45.654,37.141,82.795,82.795,82.795s82.796-37.141,82.796-82.795
	C495.484,270.22,458.341,233.079,412.687,233.079z"/>
<path style="fill:#FF6B58;" d="M158.634,185.211c-1.445-1.114-3.217-1.719-5.042-1.719H53.785c-4.562,0-8.258,3.696-8.258,8.258
	c0,4.562,3.696,8.258,8.258,8.258h96.994l25.088,19.343l10.084-13.08L158.634,185.211z"/>
<path style="fill:#261D16;" d="M99.313,415.119C44.552,415.119,0,370.567,0,315.806c0-54.761,44.552-99.313,99.313-99.313
	c54.76,0,99.311,44.552,99.311,99.313C198.625,370.567,154.073,415.119,99.313,415.119z M99.313,233.01
	c-45.654,0-82.796,37.143-82.796,82.796s37.143,82.795,82.796,82.795s82.795-37.141,82.795-82.795
	C182.109,270.152,144.966,233.01,99.313,233.01z"/>
<g>
	<path style="fill:#FF462E;" d="M420.538,313.241l-45.37-138.814V105.91h-16.516v69.832c0,0.871,0.138,1.738,0.409,2.566
		l45.778,140.064c1.138,3.483,4.372,5.695,7.848,5.695c0.849,0,1.715-0.132,2.567-0.411
		C419.589,322.238,421.955,317.577,420.538,313.241z"/>
	
		<rect x="213.901" y="138.674" transform="matrix(-0.9296 0.3685 -0.3685 -0.9296 513.6131 362.8608)" style="fill:#FF462E;" width="16.515" height="183.6"/>
	<path style="fill:#FF462E;" d="M360.436,170.615L252.005,307.548H116.39l93.826-118.432l-12.946-10.255L92.839,310.678
		c-1.967,2.483-2.34,5.871-0.961,8.723c1.379,2.852,4.267,4.663,7.434,4.663H256c2.523,0,4.908-1.154,6.474-3.131l110.91-140.064
		L360.436,170.615z"/>
</g>
<path style="fill:#FF6B58;" d="M305.496,137.009c-4.562,0-8.258-3.696-8.258-8.258c0-17.611,14.327-31.938,31.938-31.938h45.442
	c4.562,0,8.258,3.696,8.258,8.258s-3.696,8.258-8.258,8.258h-45.442c-8.504,0-15.422,6.918-15.422,15.422
	C313.754,133.312,310.057,137.009,305.496,137.009z"/>
<path style="fill:#261D16;" d="M234.342,153.385h-63.748c-4.562,0-8.258-3.696-8.258-8.258c0-4.562,3.696-8.258,8.258-8.258h63.748
	c4.562,0,8.258,3.696,8.258,8.258S238.904,153.385,234.342,153.385z"/>
</svg>