<?xml version="1.0" encoding="iso-8859-1"?>
<!-- Uploaded to: SVG Repo, www.svgrepo.com, Generator: SVG Repo Mixer Tools -->
<svg height="800px" width="800px" version="1.1" id="Layer_1" xmlns="http://www.w3.org/2000/svg" xmlns:xlink="http://www.w3.org/1999/xlink" 
	 viewBox="0 0 512 512" xml:space="preserve">
<polygon style="fill:#FAA85F;" points="500.364,151.271 500.364,232.725 186.182,477.089 11.636,477.089 11.636,430.543 
	104.727,430.543 104.727,360.725 197.818,360.725 197.818,290.907 290.909,290.907 290.909,221.089 384,221.089 384,151.271 "/>
<path style="fill:#00384E;" d="M500.364,139.634h-58.182V34.907c0-4.445-2.537-8.506-6.54-10.461
	c-3.991-1.932-8.751-1.455-12.265,1.292L51.014,316.647c-2.816,2.211-4.468,5.597-4.468,9.169v93.091H11.636
	C5.201,418.907,0,424.12,0,430.543v46.545c0,6.423,5.201,11.636,11.636,11.636h174.545c2.595,0,5.097-0.861,7.145-2.444
	l314.182-244.364c2.828-2.199,4.492-5.597,4.492-9.193v-81.455C512,144.847,506.799,139.634,500.364,139.634z M69.818,331.495
	L418.909,58.773v80.873H384c-6.435,0-11.636,5.213-11.636,11.636v58.182h-81.455c-6.435,0-11.636,5.213-11.636,11.636v58.182
	h-81.455c-6.435,0-11.636,5.213-11.636,11.636V349.1h-81.455c-6.435,0-11.636,5.213-11.636,11.636v58.182H69.818V331.495z
	 M488.727,227.035L182.191,465.452H23.273V442.18h81.455c6.435,0,11.636-5.213,11.636-11.636v-58.182h81.455
	c6.435,0,11.636-5.213,11.636-11.636v-58.182h81.455c6.435,0,11.636-5.213,11.636-11.636v-58.182H384
	c6.435,0,11.636-5.213,11.636-11.636v-58.182h93.091V227.035z"/>
</svg>