<?xml version="1.0" encoding="utf-8"?>
<!-- Uploaded to: SVG Repo, www.svgrepo.com, Generator: SVG Repo Mixer Tools -->
<svg width="800px" height="800px" viewBox="0 0 32 32" fill="none" xmlns="http://www.w3.org/2000/svg">
<g clip-path="url(#clip0_901_3167)">
<path d="M27.9731 6L28.9731 17H18.9731V5H26.9731C27.5031 5 27.8831 5.27 27.9731 6Z" fill="#FFE6EA"/>
<path d="M24.9731 25C26.6331 25 27.9731 26.34 27.9731 28C27.9731 29.66 26.6331 31 24.9731 31C23.3131 31 21.9731 29.66 21.9731 28C21.9731 26.34 23.3131 25 24.9731 25ZM7.97308 25C9.63308 25 10.9731 26.34 10.9731 28C10.9731 29.66 9.63308 31 7.97308 31C6.31308 31 4.97308 29.66 4.97308 28C4.97308 27.69 5.02308 27.38 5.11308 27.1C5.49308 25.88 6.62308 25 7.97308 25Z" fill="#668077"/>
<path d="M1.05318 3L2.55318 12L3.87318 20L5.05318 27.08L5.11318 27.1C5.49318 25.88 6.62318 25 7.97318 25C9.63318 25 10.9732 26.34 10.9732 28H21.9731C21.9731 26.34 23.3131 25 24.9731 25C26.6331 25 27.9731 26.34 27.9731 28H30.9731V19C30.9731 18 29.9731 17 28.9731 17H18.9732V2C18.9732 1.48 18.4832 1 17.9732 1H2.97318C1.63318 1 0.773177 1.34 1.05318 3Z" fill="#FFC44D"/>
<path d="M28 28C28 26.344 26.656 25 25 25C23.344 25 22 26.344 22 28C22 29.656 23.344 31 25 31C26.656 31 28 29.656 28 28ZM28 28H31V19C31 18 30 17 29 17M11 28C11 26.344 9.656 25 8 25C6.344 25 5 26.344 5 28C5 29.656 6.344 31 8 31C9.656 31 11 29.656 11 28ZM11 28H19V2C19 1.484 18.515 1 18 1H3C1.656 1 0.797 1.344 1.078 3L2 9M29 17H22M29 17L28 6C27.906 5.266 27.531 5 27 5H22M8 16H2M9 20H3M7 12H1" stroke="#000000" stroke-width="2" stroke-linecap="round" stroke-linejoin="round"/>
</g>
<defs>
<clipPath id="clip0_901_3167">
<rect width="32" height="32" fill="white"/>
</clipPath>
</defs>
</svg>