<?xml version="1.0" encoding="iso-8859-1"?>
<!-- Uploaded to: SVG Repo, www.svgrepo.com, Generator: SVG Repo Mixer Tools -->
<svg version="1.1" id="Layer_1" xmlns="http://www.w3.org/2000/svg" xmlns:xlink="http://www.w3.org/1999/xlink" 
	 viewBox="0 0 512 512" xml:space="preserve">
<rect x="8.294" y="61.374" style="fill:#D3D3D5;" width="495.413" height="389.253"/>
<polygon style="fill:#A7A7AB;" points="25.987,432.933 25.987,61.374 8.294,61.374 8.294,450.626 503.706,450.626 503.706,432.933 
	"/>
<path style="fill:#4E5058;" d="M185.227,114.454C107.053,114.454,43.68,177.827,43.68,256s63.373,141.546,141.546,141.546
	S326.773,334.173,326.773,256S263.4,114.454,185.227,114.454z M185.227,273.693c-9.771,0-17.693-7.922-17.693-17.693
	c0-9.771,7.922-17.693,17.693-17.693c9.771,0,17.693,7.922,17.693,17.693C202.92,265.771,194.998,273.693,185.227,273.693z"/>
<g>
	<path style="fill:#7A7C82;" d="M85.138,356.089c25.614,25.614,61.001,41.458,100.089,41.458V362.16
		c-27.169,0-54.337-10.365-75.066-31.094L85.138,356.089z"/>
	<path style="fill:#7A7C82;" d="M185.227,344.467v-70.773c-4.886,0-9.309-1.981-12.511-5.182l-50.044,50.044
		C139.945,335.829,162.586,344.467,185.227,344.467z"/>
</g>
<g>
	<path style="fill:#909296;" d="M197.738,243.489l50.044-50.044c-17.274-17.273-39.915-25.911-62.556-25.911v70.773
		C190.112,238.307,194.536,240.287,197.738,243.489z"/>
	<path style="fill:#909296;" d="M185.227,114.454v35.387c27.169,0,54.337,10.365,75.066,31.094l25.022-25.022
		C259.7,130.297,224.313,114.454,185.227,114.454z"/>
</g>
<path style="fill:#F9D84E;" d="M185.227,194.073c-34.201,0-61.927,27.725-61.927,61.927s27.725,61.927,61.927,61.927
	s61.927-27.725,61.927-61.927S219.428,194.073,185.227,194.073z M185.227,273.693c-9.771,0-17.693-7.922-17.693-17.693
	c0-9.771,7.922-17.693,17.693-17.693c9.771,0,17.693,7.922,17.693,17.693C202.92,265.771,194.998,273.693,185.227,273.693z"/>
<path style="fill:#EBAB17;" d="M185.227,220.613c-19.543,0-35.387,15.843-35.387,35.387s15.843,35.387,35.387,35.387
	s35.387-15.843,35.387-35.387S204.77,220.613,185.227,220.613z M185.227,273.693c-9.771,0-17.693-7.922-17.693-17.693
	c0-9.771,7.922-17.693,17.693-17.693c9.771,0,17.693,7.922,17.693,17.693C202.92,265.771,194.998,273.693,185.227,273.693z"/>
<circle style="fill:#A7A7AB;" cx="397.546" cy="132.147" r="35.387"/>
<rect x="351.954" y="330.494" transform="matrix(-0.7071 -0.7071 0.7071 -0.7071 367.7284 897.0383)" style="fill:#7DBB34;" width="35.386" height="83.733"/>
<circle style="fill:#64666D;" cx="317.927" cy="114.454" r="17.693"/>
<path d="M503.706,53.08H8.294C3.712,53.08,0,56.792,0,61.374v389.253c0,4.581,3.712,8.294,8.294,8.294H79.62
	c4.581,0,8.294-3.712,8.294-8.294c0-4.581-3.712-8.294-8.294-8.294H16.587V69.667h478.825v372.665H115.006
	c-4.581,0-8.294,3.712-8.294,8.294c0,4.581,3.712,8.294,8.294,8.294h388.7c4.581,0,8.294-3.712,8.294-8.294V61.374
	C512,56.792,508.288,53.08,503.706,53.08z"/>
<path d="M241.794,117.207c-17.971-7.331-37.003-11.047-56.568-11.047c-82.622,0-149.84,67.218-149.84,149.84
	s67.218,149.84,149.84,149.84s149.84-67.218,149.84-149.84c0-49.253-24.231-95.384-64.817-123.399
	c-3.77-2.602-8.935-1.655-11.538,2.114c-2.602,3.77-1.654,8.935,2.114,11.538c36.101,24.918,57.654,65.945,57.654,109.746
	c0,73.476-59.777,133.253-133.253,133.253S51.974,329.476,51.974,256s59.777-133.253,133.253-133.253
	c17.406,0,34.331,3.303,50.302,9.819c4.242,1.732,9.083-0.305,10.812-4.546C248.071,123.778,246.035,118.938,241.794,117.207z"/>
<path d="M185.227,185.78c-38.72,0-70.22,31.501-70.22,70.22s31.501,70.22,70.22,70.22s70.22-31.501,70.22-70.22
	S223.946,185.78,185.227,185.78z M185.227,309.633c-29.573,0-53.633-24.06-53.633-53.633s24.06-53.633,53.633-53.633
	S238.86,226.427,238.86,256C238.86,285.573,214.8,309.633,185.227,309.633z"/>
<path d="M185.227,230.013c-14.329,0-25.987,11.658-25.987,25.987s11.658,25.987,25.987,25.987s25.987-11.658,25.987-25.987
	S199.556,230.013,185.227,230.013z M185.227,265.4c-5.183,0-9.4-4.217-9.4-9.4c0-5.183,4.217-9.4,9.4-9.4s9.4,4.217,9.4,9.4
	C194.626,261.183,190.41,265.4,185.227,265.4z"/>
<path d="M399.51,331.296l-6.908-6.908c-3.24-3.238-8.491-3.238-11.73,0l-59.205,59.205c-3.239,3.24-3.239,8.491,0,11.73
	l25.022,25.022c3.196,3.195,8.534,3.195,11.73,0l59.205-59.205c3.239-3.24,3.239-8.491,0-11.73l-6.384-6.384l19.434-19.198
	c1.578-1.558,2.465-3.684,2.465-5.901v-70.773c0-2.199-0.874-4.308-2.428-5.865l-24.14-24.139l-0.362-42.187
	c19.95-4.03,35.018-21.694,35.018-42.814c0-24.085-19.595-43.68-43.68-43.68c-24.085,0-43.68,19.595-43.68,43.68
	c0,21.378,15.442,39.206,35.755,42.946l0.391,45.591c0.02,2.175,0.891,4.255,2.428,5.793l24.112,24.11v63.873L399.51,331.296z
	 M352.553,402.752l-13.293-13.293l47.477-47.477l13.293,13.293L352.553,402.752z M370.454,132.147
	c0-14.94,12.153-27.093,27.093-27.093s27.093,12.153,27.093,27.093c0,11.965-7.798,22.135-18.578,25.714l-0.221-25.786
	c-0.04-4.556-3.745-8.223-8.293-8.223c-0.023,0-0.049,0-0.072,0c-4.58,0.04-8.262,3.785-8.223,8.365l0.221,25.794
	C378.465,154.569,370.454,144.277,370.454,132.147z"/>
<path d="M451.179,371.559h-0.553c-4.581,0-8.294,3.712-8.294,8.294c0,4.581,3.712,8.294,8.294,8.294h0.553v27.093
	c0,4.581,3.712,8.294,8.294,8.294c4.581,0,8.294-3.712,8.294-8.294v-27.093h0.553c4.581,0,8.294-3.712,8.294-8.294
	c0-4.581-3.712-8.294-8.294-8.294h-0.553V282.54c0-4.581-3.712-8.294-8.294-8.294c-4.581,0-8.294,3.712-8.294,8.294V371.559z"/>
<path d="M317.927,88.467c-14.329,0-25.987,11.658-25.987,25.987s11.658,25.987,25.987,25.987c14.329,0,25.987-11.658,25.987-25.987
	S332.256,88.467,317.927,88.467z M317.927,123.853c-5.183,0-9.4-4.217-9.4-9.4s4.217-9.4,9.4-9.4s9.4,4.217,9.4,9.4
	S323.11,123.853,317.927,123.853z"/>
<path d="M459.473,255.447h1.106c4.581,0,8.294-3.712,8.294-8.294s-3.712-8.294-8.294-8.294h-1.106c-4.581,0-8.294,3.712-8.294,8.294
	S454.892,255.447,459.473,255.447z"/>
<path d="M459.473,220.06h1.106c4.581,0,8.294-3.712,8.294-8.294s-3.712-8.294-8.294-8.294h-1.106c-4.581,0-8.294,3.712-8.294,8.294
	S454.892,220.06,459.473,220.06z"/>
<path d="M459.473,184.674h1.106c4.581,0,8.294-3.712,8.294-8.294s-3.712-8.294-8.294-8.294h-1.106c-4.581,0-8.294,3.712-8.294,8.294
	S454.892,184.674,459.473,184.674z"/>
</svg>