<?xml version="1.0" encoding="utf-8"?>

<!-- License: PD. Made by Ken Lo: https://www.behance.net/lohiutang -->
<svg width="800px" height="800px" viewBox="0 0 1024 1024" class="icon"  version="1.1" xmlns="http://www.w3.org/2000/svg"><path d="M561.208333 517.9m-263.85 0a263.85 263.85 0 1 0 527.7 0 263.85 263.85 0 1 0-527.7 0Z" fill="#EDE022" /><path d="M434.4625 148.4625l3.191667 136.65c75.704167-39.091667 171.729167-41.1 246.491666-0.354167l2.595834-135.233333-252.279167-1.0625z" fill="#EDE022" /><path d="M514.245833 761.725c-154.05 0-279.375-125.325-279.375-279.370833s125.329167-279.375 279.375-279.375 279.370833 125.329167 279.370834 279.375-125.325 279.370833-279.370834 279.370833z m0-526.995833c-136.541667 0-247.625 111.083333-247.625 247.625 0 136.541667 111.083333 247.625 247.625 247.625 136.541667 0 247.625-111.083333 247.625-247.625 0-136.5375-111.0875-247.625-247.625-247.625z" fill="#332C2B" /><path d="M653.425 276.5375l-23.545833-13.258333c-33.508333-18.866667-72.791667-28.8375-113.6125-28.8375-41.941667 0-85.0625 10.65-118.295834 29.220833l-22.795833 12.7375-5.575-178.8875h284.6l-0.775 179.025zM402.354167 129.258333l2.979166 95.554167c33.595833-14.2 72.775-22.125 110.933334-22.125 37.0625 0 73.1 7.304167 105.6375 21.283333l0.4125-94.7125H402.354167zM180.279167 102.1875l81.7375 82.2-22.5125 22.383333-81.7375-82.195833zM10.395833 481.95h124.0125v31.75H10.395833zM240.0125 749.758333l21.445833 23.416667-93.079166 85.2625-21.445834-23.4125zM498.370833 869.9875h31.75v131.6875h-31.75zM781.766667 750.783333l85.283333 92.958334-23.4 21.466666-85.283333-92.958333zM878.608333 458.8H1010.416667v31.75h-131.808334zM865.679167 101.6875l21.4 23.454167-98.5 89.8875-21.404167-23.454167z" fill="#332C2B" />
<text x="50%" y="50%" text-anchor="middle" alignment-baseline="middle" font-family="times" font-size="300" fill="#fff">II</text>

</svg>