<?xml version="1.0" encoding="UTF-8" standalone="no"?>
<!-- Created with Inkscape (http://www.inkscape.org/) -->

<svg
   width="120"
   height="120"
   viewBox="0 0 120 120"
   version="1.1"
   id="svg5"
   xml:space="preserve"
   sodipodi:docname="roboczy4.svg"
   inkscape:export-filename="Review IV.svg"
   inkscape:export-xdpi="96"
   inkscape:export-ydpi="96"
   inkscape:version="1.2.2 (732a01da63, 2022-12-09)"
   xmlns:inkscape="http://www.inkscape.org/namespaces/inkscape"
   xmlns:sodipodi="http://sodipodi.sourceforge.net/DTD/sodipodi-0.dtd"
   xmlns="http://www.w3.org/2000/svg"
   xmlns:svg="http://www.w3.org/2000/svg"><sodipodi:namedview
     id="namedview7"
     pagecolor="#ffffff"
     bordercolor="#000000"
     borderopacity="0.25"
     inkscape:showpageshadow="2"
     inkscape:pageopacity="0.0"
     inkscape:pagecheckerboard="0"
     inkscape:deskcolor="#d1d1d1"
     inkscape:document-units="px"
     showgrid="false"
     inkscape:zoom="4.8849293"
     inkscape:cx="23.132372"
     inkscape:cy="66.326446"
     inkscape:window-width="1920"
     inkscape:window-height="1009"
     inkscape:window-x="-8"
     inkscape:window-y="-8"
     inkscape:window-maximized="1"
     inkscape:current-layer="layer1" /><defs
     id="defs2" /><g
     inkscape:label="Warstwa 1"
     inkscape:groupmode="layer"
     id="layer1"><g
       style="fill:none"
       id="g331"
       transform="matrix(2.6811007,0,0,2.6811007,19.052949,8.3969715)"><path
         d="M 13,9 H 27 V 5 H 13 Z M 27,1 V 5 H 13 7 V 9 C 7,9 3,9 3,5 3,1 7,1 7,1 Z"
         fill="#668077"
         id="path313" /><path
         d="m 13,9 v 8 L 10,15 7,17 V 9 5 h 6 z"
         fill="#ffe6ea"
         id="path315" /><path
         fill-rule="evenodd"
         clip-rule="evenodd"
         d="m 29,10 v 20 c 0,0 0,1 -1,1 H 4 C 4,31 3,31 3,30 V 5 c 0,4 4,4 4,4 v 8 l 3,-2 3,2 V 9 h 14 1 c 0,0 1,0 1,1 z"
         fill="#ffc44d"
         id="path317" /><path
         d="m 13,9 h 15 c 0,0 1,0 1,1 v 20 c 0,0 0,1 -1,1 H 4 C 4,31 3,31 3,30 V 5 M 3,5 C 3,1 7,1 7,1 H 29 M 3,5 C 3,9 7,9 7,9 M 7,5 v 12 l 3,-2 3,2 V 5 h 14"
         stroke="#000000"
         stroke-width="2"
         stroke-linecap="round"
         stroke-linejoin="round"
         id="path319" /></g></g></svg>
